<svg width="449" height="33" viewBox="0 0 449 33" fill="none" xmlns="http://www.w3.org/2000/svg">
<path d="M0.327042 0.164019C0.510901 0.0773511 0.755483 0.0212273 1.02044 0.00492169C1.28539 -0.0113839 1.55489 0.0130975 1.78447 0.0743225C43.1654 10.8732 127.013 9.11074 174.435 7.61289C236.752 5.64416 402.919 -7.41939 448.733 11.3216C448.856 11.3734 448.941 11.4402 448.979 11.5137C449.016 11.5871 449.004 11.6638 448.944 11.7342C448.893 11.7939 448.812 11.8474 448.707 11.8907C448.602 11.934 448.475 11.9658 448.338 11.9836C448.201 12.0014 448.056 12.0048 447.915 11.9934C447.774 11.982 447.641 11.9563 447.527 11.9181C413.513 0.944332 298.356 7.43351 253.166 7.81021C189.27 9.90451 124.369 13.2814 60.5139 9.2094C40.2003 7.75191 17.9569 6.11504 0.518014 0.957784C0.376145 0.915474 0.256822 0.859785 0.168465 0.794649C0.0801086 0.729513 0.0248732 0.656523 0.00666009 0.580821C-0.011553 0.50512 0.00769957 0.428557 0.063058 0.356538C0.118416 0.284519 0.208531 0.2188 0.327042 0.164019Z" fill="#2C6AE4"/>
<path d="M24.6107 17.6294C58.2924 26.2935 93.2808 31.0277 127.978 28.6857C128.05 28.6873 128.12 28.7151 128.174 28.764C128.228 28.8128 128.262 28.8795 128.27 28.9517C128.279 29.0238 128.261 29.0967 128.22 29.1568C128.179 29.2169 128.118 29.2602 128.048 29.2787C93.1711 35.8196 57.1412 31.9752 24.4297 18.2224C24.3908 18.2105 24.3546 18.1911 24.3232 18.1652C24.2917 18.1393 24.2657 18.1075 24.2466 18.0716C24.2274 18.0357 24.2156 17.9963 24.2116 17.9558C24.2077 17.9153 24.2118 17.8744 24.2237 17.8354C24.2356 17.7965 24.255 17.7603 24.2809 17.7288C24.3068 17.6974 24.3386 17.6714 24.3745 17.6523C24.4104 17.6331 24.4498 17.6212 24.4903 17.6173C24.5308 17.6134 24.5717 17.6175 24.6107 17.6294Z" fill="#2C6AE4"/>
<path d="M136.662 25.7207C139.945 24.8957 143.332 24.557 146.713 24.7156C147.009 24.7304 147.29 24.8536 147.501 25.0618C147.711 25.27 147.838 25.5486 147.857 25.8443C147.876 26.1401 147.785 26.4324 147.602 26.6654C147.419 26.8984 147.156 27.0559 146.864 27.1077C143.576 27.7323 140.24 28.0687 136.893 28.1129C136.592 28.1159 136.299 28.0057 136.075 27.8038C135.85 27.602 135.71 27.3233 135.681 27.0228C135.652 26.7223 135.736 26.4218 135.918 26.1807C136.1 25.9396 136.365 25.7755 136.662 25.7207Z" fill="#2C6AE4"/>
</svg>
