<svg width="338" height="265" viewBox="0 0 338 265" fill="none" xmlns="http://www.w3.org/2000/svg">
<g clip-path="url(#clip0_308_854)">
<path d="M92.2007 222.542V52.0397H223.586V222.542H92.2007Z" fill="white" stroke="black" stroke-width="0.213924"/>
<path d="M211.659 109.395H104.126V135.5H211.659V109.395Z" fill="#E7EAF4"/>
<path d="M211.659 144.638H104.126V149.72H211.659V144.638Z" fill="#E7EAF4"/>
<path d="M211.659 157.171H104.126V162.253H211.659V157.171Z" fill="#E7EAF4"/>
<path d="M211.659 169.704H104.126V174.786H211.659V169.704Z" fill="#E7EAF4"/>
<path d="M211.659 180.939H104.126V186.021H211.659V180.939Z" fill="#E7EAF4"/>
<path d="M140.683 82.5425C140.683 86.1577 139.611 89.6918 137.603 92.6977C135.595 95.7037 132.74 98.0465 129.4 99.4301C126.06 100.814 122.385 101.176 118.839 100.47C115.293 99.7651 112.036 98.0242 109.48 95.4679C106.923 92.9116 105.183 89.6546 104.477 86.1089C103.772 82.5632 104.134 78.8879 105.517 75.5479C106.901 72.2079 109.244 69.3532 112.25 67.3447C115.255 65.3362 118.789 64.2641 122.405 64.2641C124.807 64.257 127.187 64.7249 129.408 65.6409C131.629 66.5569 133.647 67.903 135.346 69.6018C137.044 71.3005 138.39 73.3183 139.307 75.5392C140.223 77.7601 140.691 80.1402 140.683 82.5425Z" fill="#F7F7F9"/>
<path d="M122.404 84.4263C126.401 84.4263 129.641 81.1864 129.641 77.1899C129.641 73.1934 126.401 69.9536 122.404 69.9536C118.408 69.9536 115.168 73.1934 115.168 77.1899C115.168 81.1864 118.408 84.4263 122.404 84.4263Z" fill="#FDDB8C"/>
<path d="M135.576 95.2173C133.87 96.9894 131.825 98.3991 129.561 99.3621C127.298 100.325 124.864 100.821 122.404 100.821C119.945 100.821 117.51 100.325 115.247 99.3621C112.984 98.3991 110.938 96.9894 109.232 95.2173C111.697 89.7093 116.672 85.9447 122.404 85.9447C128.135 85.9447 133.111 89.7093 135.576 95.2173Z" fill="#FDDB8C"/>
<path d="M185.034 64.3777H148.132V75.5297H185.034V64.3777Z" fill="#E7EAF4"/>
<path d="M211.66 82.4275H148.132V86.4849H211.66V82.4275Z" fill="#E7EAF4"/>
<path d="M211.66 93.3829H148.132V97.4404H211.66V93.3829Z" fill="#E7EAF4"/>
<path d="M143.867 195.864H104.126V210.656H143.867V195.864Z" fill="#E7EAF4"/>
<path d="M83.051 240.724C83.0137 240.724 82.9768 240.717 82.9423 240.703C82.9078 240.688 82.8765 240.667 82.8502 240.641C82.45 240.241 81.7976 232.899 80.0406 211.038C79.3217 202.093 78.6425 193.644 78.1469 188.51C78.1117 188.143 77.9694 188.101 77.9228 188.087C77.2442 187.882 75.1813 189.509 74.0296 190.933C74.0061 190.962 73.9771 190.986 73.9444 191.004C73.9116 191.022 73.8756 191.033 73.8385 191.037C73.8014 191.041 73.7639 191.038 73.7281 191.027C73.6923 191.017 73.6589 190.999 73.6299 190.976C73.6009 190.952 73.5768 190.923 73.559 190.89C73.5411 190.858 73.5299 190.822 73.526 190.785C73.5221 190.747 73.5255 190.71 73.5361 190.674C73.5466 190.638 73.5641 190.605 73.5876 190.576C74.3494 189.634 76.8318 187.165 78.0861 187.542C78.3389 187.619 78.6528 187.838 78.711 188.455C79.2069 193.594 79.8863 202.046 80.6055 210.993C81.6732 224.277 82.8826 239.327 83.2802 240.274C83.3106 240.317 83.3288 240.367 83.3327 240.419C83.3366 240.471 83.3262 240.523 83.3025 240.569C83.2789 240.615 83.2429 240.654 83.1985 240.682C83.1542 240.709 83.1031 240.724 83.051 240.724Z" fill="#494949"/>
<path d="M77.4176 197.931C82.1308 194.153 83.693 188.272 80.9068 184.797C78.1206 181.321 72.0411 181.566 67.3279 185.344C62.6147 189.122 61.0526 195.002 63.8388 198.478C66.625 201.954 72.7044 201.709 77.4176 197.931Z" fill="#0CBC8B"/>
<path opacity="0.2" d="M77.4176 197.931C82.1308 194.153 83.693 188.272 80.9068 184.797C78.1206 181.321 72.0411 181.566 67.3279 185.344C62.6147 189.122 61.0526 195.002 63.8388 198.478C66.625 201.954 72.7044 201.709 77.4176 197.931Z" fill="white"/>
<path d="M65.16 199.361C65.1269 199.362 65.0948 199.35 65.0694 199.329C65.0407 199.305 65.0227 199.27 65.0192 199.233C65.0157 199.196 65.027 199.159 65.0507 199.13L78.4829 182.932C78.4948 182.917 78.5094 182.906 78.5259 182.897C78.5424 182.888 78.5605 182.883 78.5791 182.881C78.5977 182.879 78.6164 182.881 78.6342 182.887C78.6521 182.892 78.6686 182.901 78.683 182.913C78.6974 182.925 78.7092 182.94 78.7179 182.956C78.7266 182.973 78.732 182.991 78.7337 183.009C78.7355 183.028 78.7335 183.047 78.728 183.064C78.7225 183.082 78.7135 183.099 78.7016 183.113L65.2708 199.31C65.2573 199.326 65.2403 199.339 65.2212 199.348C65.202 199.357 65.1811 199.362 65.16 199.361Z" fill="white"/>
<path d="M85.9802 237.25C85.9349 237.25 85.8902 237.239 85.85 237.219C85.8097 237.198 85.775 237.168 85.7488 237.131C85.7225 237.094 85.7055 237.051 85.6991 237.006C85.6927 236.961 85.6972 236.916 85.7121 236.873L90.7577 222.362C90.9062 221.936 91.1594 221.554 91.4939 221.251C91.8285 220.948 92.2337 220.733 92.6726 220.627C93.1114 220.521 93.5699 220.527 94.0059 220.644C94.4418 220.762 94.8415 220.986 95.1681 221.298L97.8358 223.846C97.8903 223.898 97.9219 223.97 97.9236 224.045C97.9253 224.12 97.8971 224.193 97.845 224.248C97.793 224.302 97.7214 224.334 97.6461 224.336C97.5707 224.337 97.4978 224.309 97.4433 224.257L94.7759 221.709C94.518 221.463 94.2025 221.285 93.8583 221.193C93.5141 221.1 93.1522 221.096 92.8057 221.179C92.4592 221.263 92.1393 221.432 91.8752 221.671C91.6111 221.911 91.4112 222.212 91.2939 222.549L86.2486 237.06C86.2292 237.116 86.1929 237.164 86.1448 237.198C86.0967 237.232 86.0392 237.25 85.9802 237.25Z" fill="#494949"/>
<path d="M105.287 231.879C108.78 229.114 108.573 223.033 104.824 218.297C101.075 213.561 95.2041 211.963 91.7112 214.727C88.2183 217.492 88.4259 223.573 92.1749 228.309C95.9238 233.046 101.795 234.644 105.287 231.879Z" fill="#0CBC8B"/>
<path d="M80.759 239.798C80.6952 239.798 80.6332 239.776 80.5831 239.736C80.533 239.697 80.4977 239.642 80.4829 239.579L72.0156 204.176C71.9577 203.935 71.8343 203.714 71.6592 203.538C71.484 203.363 71.2638 203.239 71.0228 203.18C70.7817 203.121 70.5291 203.13 70.2928 203.206C70.0564 203.281 69.8455 203.42 69.6831 203.608L67.0728 206.624C67.0485 206.653 67.0188 206.677 66.9854 206.694C66.952 206.711 66.9155 206.721 66.8781 206.724C66.8406 206.727 66.803 206.722 66.7674 206.71C66.7317 206.699 66.6988 206.68 66.6704 206.655C66.642 206.631 66.6188 206.601 66.6021 206.567C66.5853 206.534 66.5754 206.497 66.5729 206.46C66.5704 206.422 66.5753 206.385 66.5874 206.349C66.5995 206.314 66.6185 206.281 66.6434 206.253L69.2534 203.236C69.4842 202.97 69.7841 202.772 70.1201 202.665C70.4561 202.557 70.8152 202.545 71.1579 202.628C71.5006 202.712 71.8136 202.889 72.0624 203.139C72.3112 203.389 72.4863 203.702 72.5683 204.045L81.0345 239.447C81.052 239.521 81.0397 239.598 81.0003 239.662C80.9609 239.726 80.8976 239.772 80.8243 239.79C80.8029 239.795 80.781 239.798 80.759 239.798Z" fill="#494949"/>
<path d="M77.6347 214.489C78.664 208.537 75.94 203.096 71.5504 202.337C67.1609 201.578 62.768 205.788 61.7387 211.74C60.7094 217.692 63.4335 223.133 67.823 223.892C72.2126 224.651 76.6055 220.441 77.6347 214.489Z" fill="#0CBC8B"/>
<path d="M83.0511 240.724C83.0394 240.724 83.0277 240.723 83.0161 240.722C82.9791 240.718 82.9433 240.706 82.9108 240.687C82.8783 240.669 82.8498 240.644 82.8268 240.615C82.8038 240.586 82.7869 240.552 82.7769 240.516C82.7669 240.48 82.7642 240.442 82.7687 240.405L88.1759 196.505C88.2348 196.026 88.4306 195.575 88.7397 195.206C89.0488 194.836 89.4581 194.564 89.9183 194.421C90.3786 194.278 90.8702 194.272 91.3342 194.402C91.7981 194.532 92.2146 194.793 92.5335 195.155L98.7135 202.154C98.7382 202.182 98.7572 202.215 98.7693 202.25C98.7814 202.285 98.7864 202.322 98.7841 202.36C98.7818 202.397 98.7721 202.433 98.7557 202.467C98.7393 202.5 98.7165 202.53 98.6885 202.555C98.6606 202.58 98.628 202.599 98.5927 202.611C98.5574 202.623 98.5201 202.628 98.4828 202.626C98.4456 202.623 98.4092 202.614 98.3757 202.597C98.3421 202.581 98.3122 202.558 98.2875 202.53L92.1075 195.531C91.861 195.251 91.5391 195.049 91.1806 194.949C90.822 194.848 90.442 194.853 90.0863 194.964C89.7306 195.074 89.4143 195.284 89.1754 195.57C88.9365 195.856 88.7852 196.204 88.7397 196.574L83.3328 240.473C83.3247 240.542 83.2915 240.606 83.2396 240.652C83.1877 240.698 83.1206 240.724 83.0511 240.724Z" fill="#494949"/>
<path d="M105.052 206.044C107.209 202.146 104.672 196.615 99.3859 193.692C94.1001 190.768 88.0672 191.558 85.911 195.456C83.7548 199.354 86.2918 204.884 91.5775 207.808C96.8632 210.732 102.896 209.942 105.052 206.044Z" fill="#0CBC8B"/>
<path opacity="0.2" d="M105.287 231.879C108.78 229.114 108.573 223.033 104.824 218.297C101.075 213.561 95.2041 211.963 91.7112 214.727C88.2183 217.492 88.4259 223.573 92.1749 228.309C95.9238 233.046 101.795 234.644 105.287 231.879Z" fill="white"/>
<path opacity="0.5" d="M77.6347 214.489C78.664 208.537 75.94 203.096 71.5504 202.337C67.1609 201.578 62.768 205.788 61.7387 211.74C60.7094 217.692 63.4335 223.133 67.823 223.892C72.2126 224.651 76.6055 220.441 77.6347 214.489Z" fill="white"/>
<path opacity="0.5" d="M105.052 206.044C107.209 202.146 104.672 196.615 99.3859 193.692C94.1001 190.768 88.0672 191.558 85.911 195.456C83.7548 199.354 86.2918 204.884 91.5775 207.808C96.8632 210.732 102.896 209.942 105.052 206.044Z" fill="white"/>
<path d="M89.9662 277.971H76.1346L73.8428 233.718H92.2581L89.9662 277.971Z" fill="#292A2E"/>
<path opacity="0.3" d="M89.9662 277.971H76.1346L73.8428 233.718H92.2581L89.9662 277.971Z" fill="white"/>
<path d="M105.289 232.02C105.268 232.02 105.247 232.016 105.227 232.006C105.208 231.997 105.191 231.983 105.178 231.966L91.601 214.815C91.5894 214.8 91.5808 214.783 91.5757 214.765C91.5706 214.748 91.5691 214.729 91.5713 214.71C91.5734 214.692 91.5792 214.674 91.5883 214.657C91.5973 214.641 91.6095 214.627 91.6242 214.615C91.6388 214.604 91.6555 214.595 91.6735 214.59C91.6914 214.585 91.7102 214.583 91.7287 214.586C91.7472 214.588 91.7652 214.593 91.7815 214.603C91.7978 214.612 91.8121 214.624 91.8237 214.638L105.4 231.79C105.417 231.811 105.427 231.836 105.43 231.863C105.433 231.889 105.429 231.916 105.417 231.94C105.406 231.964 105.387 231.985 105.365 231.999C105.342 232.013 105.316 232.02 105.289 232.02Z" fill="white"/>
<path d="M104.15 207.418C104.119 207.418 104.089 207.408 104.065 207.39L86.6931 194.705C86.678 194.694 86.6652 194.68 86.6555 194.664C86.6458 194.648 86.6393 194.631 86.6365 194.612C86.6336 194.594 86.6344 194.575 86.6388 194.557C86.6432 194.539 86.6511 194.522 86.6621 194.507C86.6731 194.492 86.687 194.479 86.7029 194.469C86.7188 194.459 86.7365 194.453 86.755 194.45C86.7734 194.447 86.7922 194.448 86.8103 194.452C86.8285 194.457 86.8456 194.465 86.8606 194.476L104.234 207.162C104.258 207.179 104.275 207.204 104.284 207.232C104.293 207.261 104.293 207.291 104.284 207.319C104.274 207.348 104.256 207.372 104.233 207.39C104.209 207.407 104.18 207.417 104.15 207.417V207.418Z" fill="white"/>
<path d="M67.1166 223.707C67.1042 223.707 67.0919 223.705 67.08 223.702C67.0436 223.693 67.0125 223.669 66.9937 223.636C66.9748 223.604 66.9697 223.565 66.9794 223.528L72.5098 202.807C72.5203 202.772 72.5443 202.742 72.5765 202.724C72.6087 202.706 72.6468 202.701 72.6825 202.71C72.7182 202.72 72.7488 202.743 72.7678 202.775C72.7868 202.806 72.7927 202.844 72.7842 202.88L67.2552 223.602C67.2471 223.632 67.229 223.659 67.2039 223.678C67.1789 223.697 67.1481 223.707 67.1166 223.707Z" fill="white"/>
<path d="M300.774 104.959L301.572 104.302C301.824 104.086 301.983 103.783 302.02 103.454C302.056 103.125 301.967 102.795 301.769 102.53C301.662 102.396 301.529 102.286 301.378 102.206C301.227 102.125 301.062 102.077 300.892 102.062C300.721 102.048 300.55 102.069 300.388 102.123C300.226 102.178 300.076 102.264 299.949 102.378L290.471 110.792L293.091 113.898C293.905 114.863 294.988 115.562 296.202 115.907C297.416 116.252 298.705 116.226 299.905 115.834L305.334 114.046C305.618 113.958 305.863 113.775 306.028 113.528C306.193 113.281 306.267 112.984 306.238 112.688C306.163 112.106 300.774 104.959 300.774 104.959Z" fill="#FFB59B"/>
<path d="M295.109 105.025L268.963 113.126L253.018 86.1167L239.396 94.0819L259.497 126.566L259.624 126.728C260.678 128.036 262.113 128.982 263.73 129.435C265.347 129.888 267.065 129.825 268.644 129.256L299.811 117.967L295.109 105.025Z" fill="#A99BFF"/>
<path d="M311.066 247.16L289.266 248.185L280.858 105.057L302.658 104.032L311.066 247.16Z" fill="#FDDB8C"/>
<path opacity="0.5" d="M311.066 247.16L289.266 248.185L280.858 105.057L302.658 104.032L311.066 247.16Z" fill="white"/>
<path d="M301.918 88.2612L280.118 89.2858L280.859 105.055L302.659 104.03L301.918 88.2612Z" fill="#262626"/>
<path d="M311.068 247.16C311.068 247.16 308.076 252.354 305.381 256.998C303.243 260.681 301.291 264.019 301.165 264.144C301.035 264.273 298.599 261.033 295.964 257.441C292.762 253.075 289.267 248.185 289.267 248.185L311.068 247.16Z" fill="#FDDB8C"/>
<path opacity="0.9" d="M311.068 247.16C311.068 247.16 308.076 252.354 305.381 256.998C303.243 260.681 301.291 264.019 301.165 264.144C301.035 264.273 298.599 261.033 295.964 257.441C292.762 253.075 289.267 248.185 289.267 248.185L311.068 247.16Z" fill="white"/>
<path d="M305.38 256.999C303.243 260.683 301.29 264.021 301.165 264.145C301.035 264.275 298.598 261.035 295.964 257.442L305.38 256.999Z" fill="#262626"/>
<path d="M304.276 247.438L295.484 104.398L296.479 104.348L305.271 247.387L304.276 247.438Z" fill="white"/>
<path d="M295.748 247.842L286.956 104.802L287.951 104.752L296.743 247.791L295.748 247.842Z" fill="white"/>
<path d="M299.381 111.633C299.38 111.359 299.47 111.091 299.635 110.872C299.801 110.653 300.033 110.493 300.298 110.419C300.288 110.398 300.252 110.356 300.287 110.342L299.252 110.158C298.945 110.111 298.667 109.954 298.467 109.717C298.267 109.48 298.16 109.179 298.165 108.869C298.18 108.563 298.308 108.274 298.525 108.057C298.741 107.84 299.03 107.712 299.336 107.696C299.328 107.686 299.331 107.672 299.327 107.66L298.901 107.584C298.612 107.539 298.349 107.394 298.154 107.177C297.96 106.959 297.847 106.68 297.834 106.388C297.83 106.205 297.867 106.024 297.941 105.856C298.016 105.689 298.127 105.54 298.266 105.421C298.405 105.302 298.568 105.215 298.745 105.167C298.922 105.118 299.107 105.11 299.287 105.142L300.269 105.315C300.269 105.31 300.265 105.306 300.266 105.301C300.267 105.295 300.274 105.29 300.276 105.284C300.018 105.175 299.804 104.982 299.67 104.736C299.536 104.49 299.489 104.206 299.538 103.93C299.617 103.21 300.468 102.941 301.103 103.054L303.076 103.565C303.38 103.644 303.66 103.797 303.891 104.01C304.122 104.223 304.297 104.49 304.4 104.786C305.293 107.357 307.465 114.126 305.438 113.767L300.449 112.883C300.157 112.823 299.894 112.667 299.701 112.441C299.507 112.215 299.395 111.931 299.381 111.633Z" fill="#FFB59B"/>
<path d="M216.474 59.5941C216.474 59.5941 213.534 57.0498 213.128 51.6188C212.813 47.4151 216.474 50.369 216.474 50.369C216.474 50.369 216.277 47.3389 218.444 47.7843C220.611 48.2297 221.625 51.466 221.625 51.466" fill="#0C0C0C"/>
<path d="M229.731 48.8938C229.731 48.8938 240.511 50.7852 235.6 65.234H232.676" fill="#0C0C0C"/>
<path d="M237.428 246.557C237.428 246.557 240.878 252.382 236.465 256.788C232.053 261.194 236.352 264.009 236.352 264.009L254.152 248.233L246.27 239.34L237.428 246.557Z" fill="#A99BFF"/>
<path d="M207.141 131.725C207.141 131.725 205.137 189.517 205.392 192.338C206.356 203.007 237.754 251.352 237.754 251.352L249.445 241.369L234.515 211.128L225.077 190.053C225.077 190.053 226.701 171.927 231.081 155.096C233.322 146.457 234.67 137.612 235.105 128.698L207.141 131.725Z" fill="#262626"/>
<path d="M236.852 251.674C236.852 251.674 235.57 258.321 229.346 258.692C223.122 259.064 224.472 264.021 224.472 264.021H248.257V252.138L236.852 251.674Z" fill="#A99BFF"/>
<path d="M249.869 130.412C249.869 130.412 249.794 128.414 249.81 132.946C249.869 149.855 249.306 255.917 249.306 255.917L233.677 255.786L224.209 129.724L249.869 130.412Z" fill="#262626"/>
<path d="M227.42 172.697L226.138 153.096C226.138 153.096 224.821 161.244 224.821 168.268C224.821 171.701 225.529 185.294 225.529 185.294L227.42 172.697Z" fill="#0A0A0A"/>
<path d="M229.503 199.937L232.754 243.507L229.711 238.611L226.601 193.456L229.503 199.937Z" fill="#0A0A0A"/>
<path d="M217.592 80.2554C217.64 80.2491 218.17 89.0578 228.404 88.2901C235.488 87.7592 238.014 80.2429 238.177 80.2429C237.413 80.0807 236.469 79.8341 236.093 79.7498C235.276 79.56 234.535 79.1258 233.971 78.5049C233.406 77.884 233.044 77.1059 232.932 76.2741C232.725 75.0243 233.076 68.6375 232.968 67.3741L222.093 69.8015C222.245 72.4694 223.309 78.6548 219.581 79.7498C218.961 79.9307 218.293 80.0971 217.592 80.2554Z" fill="#FFB59B"/>
<path opacity="0.52" d="M221.94 77.2219C222.111 76.6729 222.22 76.107 222.267 75.5341C222.387 74.2269 222.363 72.9105 222.196 71.6085C224.407 71.3101 226.489 70.3978 228.207 68.9752C228.409 69.7211 229.519 72.9801 229.212 73.6882C228.631 75.028 225.899 77.2219 221.94 77.2219Z" fill="#0C0C0C"/>
<path d="M223.87 75.0936C228.177 74.9964 233.481 72.6353 233.945 66.8296L234.363 61.5912C234.826 55.7855 232.152 50.836 226.686 50.4003C221.22 49.964 216.758 54.3443 216.295 60.15L216.11 62.4691C216.061 63.2665 216.065 64.0663 216.124 64.863C216.266 66.9699 216.487 70.1744 217.761 72.4163C218.962 74.5329 221.119 75.1555 223.87 75.0936Z" fill="#FFB59B"/>
<path opacity="0.52" d="M222.24 69.6506C221.353 69.6314 220.484 69.4042 219.702 68.9874C219.686 68.9795 219.671 68.9683 219.658 68.9545C219.646 68.9407 219.636 68.9246 219.63 68.9071C219.625 68.8896 219.622 68.8711 219.623 68.8526C219.625 68.8342 219.63 68.8162 219.638 68.7997C219.646 68.7832 219.658 68.7685 219.672 68.7566C219.686 68.7447 219.703 68.7357 219.72 68.7302C219.738 68.7247 219.757 68.7228 219.775 68.7247C219.793 68.7265 219.811 68.732 219.828 68.7408C221.515 69.5981 223.1 69.5955 224.411 68.7329C224.437 68.7146 224.465 68.6977 224.493 68.6823C224.526 68.6662 224.564 68.6639 224.599 68.6758C224.633 68.6877 224.662 68.713 224.678 68.746C224.694 68.7789 224.696 68.817 224.685 68.8517C224.673 68.8865 224.647 68.915 224.614 68.9311C224.604 68.9368 224.586 68.9485 224.563 68.9641C223.874 69.419 223.065 69.6581 222.24 69.6506Z" fill="#0C0C0C"/>
<path opacity="0.52" d="M222.194 70.9609C222.034 70.96 221.874 70.9454 221.717 70.9174C221.681 70.9111 221.649 70.8907 221.628 70.8607C221.607 70.8307 221.598 70.7935 221.605 70.7574C221.611 70.7212 221.631 70.689 221.661 70.6679C221.691 70.6468 221.728 70.6385 221.765 70.6447C222.714 70.8106 223.2 70.403 223.22 70.3854C223.248 70.3612 223.284 70.349 223.32 70.3514C223.357 70.3539 223.391 70.3707 223.415 70.3983C223.439 70.426 223.452 70.462 223.449 70.4987C223.447 70.5353 223.43 70.5694 223.402 70.5936C223.054 70.8522 222.627 70.982 222.194 70.9609Z" fill="#0C0C0C"/>
<path d="M217.917 62.8582C218.29 62.8582 218.592 62.5558 218.592 62.1828C218.592 61.8098 218.29 61.5074 217.917 61.5074C217.544 61.5074 217.241 61.8098 217.241 62.1828C217.241 62.5558 217.544 62.8582 217.917 62.8582Z" fill="#0C0C0C"/>
<path d="M224.176 62.9009C224.549 62.9009 224.852 62.5985 224.852 62.2254C224.852 61.8524 224.549 61.55 224.176 61.55C223.803 61.55 223.501 61.8524 223.501 62.2254C223.501 62.5985 223.803 62.9009 224.176 62.9009Z" fill="#0C0C0C"/>
<path d="M233.464 68.5713C235.126 68.7037 236.614 67.0341 236.747 65.3728C236.879 63.7115 235.606 62.6881 233.944 62.5555L233 63.6007L232.036 68.4577L233.464 68.5713Z" fill="#FFB59B"/>
<path d="M204.878 99.6483C205.2 103.435 206.768 127.06 207.078 131.725H249.789C250.03 127.518 251.114 109.123 252.029 100.896C252.902 93.0459 254.616 88.8317 253.359 86.5109C251.307 82.7179 245.699 80.8101 241.874 80.2923C239.539 79.9764 236.027 79.7498 236.027 79.7498C236.027 79.7498 235.73 85.7656 228.638 86.1005C218.985 86.5549 219.63 79.7498 219.582 79.7498C216.078 79.7498 209.445 80.5882 206.899 82.3191C201.176 86.2112 204.194 91.6235 204.878 99.6483Z" fill="#A99BFF"/>
<path d="M231.989 65.7878C231.989 65.7878 231.978 57.5284 229.518 56.8535C227.88 56.4042 223.695 58.4896 220.014 57.5284C218.403 57.1078 216.827 57.408 216.618 58.1681C216.535 58.4691 215.812 54.0155 218.59 50.8584C220.802 48.345 227.509 48.0428 230.481 49.1148C238.706 52.0826 234.261 62.9398 234.261 62.9398L233.697 65.7495L231.989 65.7878Z" fill="#0C0C0C"/>
<g opacity="0.52">
<path d="M221.365 67.6417H221.354C220.819 67.6005 219.925 67.4713 219.956 67.0708C219.982 66.7391 221.167 63.2267 221.302 62.8273C221.308 62.8103 221.317 62.7946 221.328 62.7811C221.34 62.7676 221.355 62.7565 221.371 62.7486C221.387 62.7406 221.404 62.7359 221.422 62.7347C221.44 62.7335 221.458 62.7358 221.475 62.7416C221.492 62.7473 221.508 62.7563 221.521 62.7682C221.535 62.78 221.546 62.7943 221.554 62.8104C221.562 62.8265 221.567 62.844 221.568 62.8619C221.569 62.8798 221.567 62.8978 221.561 62.9148C221.035 64.4705 220.246 66.8666 220.229 67.0918C220.274 67.1907 220.821 67.3261 221.375 67.369C221.41 67.3722 221.442 67.3886 221.466 67.4149C221.489 67.4413 221.501 67.4755 221.5 67.5105C221.498 67.5455 221.484 67.5788 221.459 67.6033C221.434 67.6278 221.4 67.6418 221.365 67.6423V67.6417Z" fill="#0C0C0C"/>
</g>
<path d="M219.815 60.1094C219.604 60.0209 219.383 59.9612 219.156 59.9319C218.921 59.8993 218.683 59.8993 218.448 59.9319C218.212 59.9614 217.982 60.0266 217.765 60.1253C217.544 60.2247 217.336 60.3514 217.147 60.5025L217.132 60.5138C217.083 60.55 217.022 60.5659 216.962 60.5582C216.901 60.5505 216.846 60.5199 216.808 60.4726C216.769 60.4254 216.751 60.3652 216.756 60.3045C216.761 60.2438 216.789 60.1874 216.834 60.1469C217.044 59.9518 217.278 59.7841 217.53 59.6475C217.785 59.5077 218.06 59.4071 218.346 59.349C218.929 59.2264 219.534 59.264 220.097 59.4578C220.141 59.4733 220.182 59.4974 220.216 59.5286C220.251 59.5598 220.279 59.5975 220.3 59.6396C220.32 59.6817 220.331 59.7274 220.334 59.774C220.337 59.8207 220.33 59.8674 220.314 59.9114C220.299 59.9555 220.275 59.996 220.244 60.0308C220.212 60.0655 220.175 60.0938 220.132 60.114C220.09 60.1342 220.045 60.1459 219.998 60.1484C219.951 60.1509 219.905 60.1442 219.861 60.1287C219.852 60.1256 219.844 60.1224 219.836 60.1188L219.815 60.1094Z" fill="#0C0C0C"/>
<path d="M223.779 59.5141C224.063 59.4145 224.359 59.356 224.66 59.3403C224.951 59.3221 225.244 59.344 225.53 59.4053C225.816 59.4635 226.091 59.5641 226.346 59.7039C226.598 59.8406 226.832 60.0085 227.042 60.2038C227.088 60.2439 227.117 60.3005 227.123 60.3616C227.128 60.4227 227.11 60.4835 227.071 60.5312C227.032 60.5789 226.977 60.6097 226.916 60.6171C226.855 60.6246 226.794 60.608 226.745 60.571L226.729 60.5591C226.539 60.408 226.332 60.2813 226.111 60.1819C225.895 60.0832 225.665 60.0179 225.429 59.9882C225.194 59.9557 224.956 59.9557 224.722 59.9882C224.495 60.0175 224.273 60.0772 224.062 60.1657L224.042 60.1745C224 60.1934 223.954 60.2037 223.907 60.2048C223.86 60.2059 223.814 60.1978 223.77 60.181C223.727 60.1641 223.687 60.1389 223.653 60.1067C223.619 60.0744 223.592 60.0359 223.573 59.9932C223.554 59.9504 223.544 59.9044 223.543 59.8577C223.542 59.8111 223.55 59.7646 223.567 59.721C223.584 59.6775 223.609 59.6377 223.641 59.6039C223.673 59.5701 223.712 59.543 223.755 59.5241C223.762 59.5207 223.771 59.517 223.779 59.5141Z" fill="#0C0C0C"/>
<path d="M224.357 51.2837C224.856 49.4977 224.278 47.7746 223.065 47.435C221.851 47.0954 220.463 48.268 219.963 50.054C219.463 51.84 220.041 53.5632 221.255 53.9027C222.468 54.2423 223.857 53.0697 224.357 51.2837Z" fill="#0C0C0C"/>
<path d="M203.213 137.897C203.39 137.836 203.55 137.737 203.684 137.607C203.817 137.477 203.92 137.319 203.985 137.145C204.05 136.97 204.076 136.783 204.06 136.597C204.044 136.412 203.987 136.232 203.893 136.071L204.717 137.48C204.878 137.769 205.142 137.986 205.457 138.088C205.772 138.189 206.114 138.167 206.414 138.026C206.566 137.948 206.7 137.84 206.809 137.708C206.918 137.576 206.998 137.424 207.046 137.26C207.094 137.096 207.108 136.923 207.087 136.754C207.066 136.584 207.011 136.421 206.925 136.273L207.297 136.911C207.443 137.17 207.673 137.371 207.949 137.48C208.226 137.588 208.531 137.598 208.814 137.507C208.991 137.447 209.151 137.348 209.285 137.218C209.418 137.088 209.521 136.93 209.586 136.755C209.651 136.581 209.677 136.394 209.661 136.208C209.645 136.022 209.588 135.843 209.494 135.682L208.84 134.565C209.009 134.853 209.284 135.062 209.607 135.147C209.93 135.232 210.273 135.185 210.561 135.016C211.221 134.688 211.177 133.781 210.847 133.214L209.619 130.927L210.43 131.57C210.694 131.77 211.023 131.862 211.353 131.829C211.682 131.795 211.986 131.638 212.204 131.389C212.312 131.256 212.392 131.103 212.438 130.939C212.485 130.775 212.498 130.602 212.476 130.433C212.454 130.263 212.398 130.1 212.31 129.953C212.223 129.806 212.107 129.678 211.969 129.578L204.589 124.924L199.264 125.298C198.492 126.297 198.036 127.503 197.955 128.762C197.873 130.022 198.169 131.277 198.806 132.367L201.696 137.299C201.842 137.558 202.072 137.759 202.348 137.868C202.625 137.977 202.93 137.987 203.213 137.897Z" fill="#FFB59B"/>
<path d="M208.01 133.167C208.006 133.14 208.013 133.112 208.028 133.089C208.043 133.066 208.066 133.049 208.092 133.041C208.119 133.033 208.147 133.035 208.173 133.045C208.198 133.056 208.219 133.075 208.232 133.099L209.045 134.648C209.052 134.662 209.056 134.677 209.058 134.693C209.059 134.708 209.058 134.724 209.053 134.738C209.048 134.753 209.041 134.767 209.031 134.779C209.021 134.791 209.009 134.801 208.995 134.808C208.981 134.815 208.966 134.82 208.951 134.821C208.935 134.822 208.92 134.821 208.905 134.816C208.89 134.812 208.876 134.804 208.864 134.794C208.853 134.784 208.843 134.772 208.835 134.758L208.022 133.209C208.016 133.196 208.011 133.182 208.01 133.167Z" fill="#FFB59B"/>
<path d="M205.819 134.321C205.816 134.293 205.823 134.266 205.838 134.243C205.853 134.22 205.876 134.203 205.902 134.195C205.928 134.187 205.956 134.188 205.981 134.199C206.007 134.209 206.028 134.228 206.041 134.252L207.173 136.368C207.18 136.382 207.185 136.397 207.186 136.412C207.188 136.428 207.186 136.443 207.182 136.458C207.177 136.473 207.17 136.487 207.16 136.499C207.15 136.511 207.138 136.521 207.125 136.528C207.111 136.536 207.096 136.54 207.08 136.542C207.065 136.543 207.049 136.542 207.034 136.537C207.02 136.533 207.006 136.525 206.994 136.515C206.982 136.506 206.972 136.493 206.964 136.48L205.832 134.363C205.825 134.35 205.821 134.336 205.819 134.321Z" fill="#FFB59B"/>
<path d="M203.439 135.556C203.436 135.529 203.443 135.501 203.458 135.478C203.474 135.455 203.496 135.438 203.523 135.43C203.55 135.422 203.578 135.424 203.604 135.435C203.629 135.446 203.65 135.465 203.662 135.49L204.173 136.502C204.188 136.53 204.19 136.562 204.18 136.592C204.171 136.622 204.149 136.647 204.121 136.661C204.093 136.675 204.061 136.677 204.031 136.668C204.001 136.658 203.977 136.637 203.962 136.609L203.451 135.596C203.445 135.584 203.441 135.57 203.439 135.556Z" fill="#FFB59B"/>
<path opacity="0.2" d="M208.01 133.167C208.006 133.14 208.013 133.112 208.028 133.089C208.043 133.066 208.066 133.049 208.092 133.041C208.119 133.033 208.147 133.035 208.173 133.045C208.198 133.056 208.219 133.075 208.232 133.099L209.045 134.648C209.052 134.662 209.056 134.677 209.058 134.693C209.059 134.708 209.058 134.724 209.053 134.738C209.048 134.753 209.041 134.767 209.031 134.779C209.021 134.791 209.009 134.801 208.995 134.808C208.981 134.815 208.966 134.82 208.951 134.821C208.935 134.822 208.92 134.821 208.905 134.816C208.89 134.812 208.876 134.804 208.864 134.794C208.853 134.784 208.843 134.772 208.835 134.758L208.022 133.209C208.016 133.196 208.011 133.182 208.01 133.167Z" fill="#0C0C0C"/>
<path opacity="0.2" d="M205.819 134.321C205.816 134.293 205.823 134.266 205.838 134.243C205.853 134.22 205.876 134.203 205.902 134.195C205.928 134.187 205.956 134.188 205.981 134.199C206.007 134.209 206.028 134.228 206.041 134.252L207.173 136.368C207.18 136.382 207.185 136.397 207.186 136.412C207.188 136.428 207.186 136.443 207.182 136.458C207.177 136.473 207.17 136.487 207.16 136.499C207.15 136.511 207.138 136.521 207.125 136.528C207.111 136.536 207.096 136.54 207.08 136.542C207.065 136.543 207.049 136.542 207.034 136.537C207.02 136.533 207.006 136.525 206.994 136.515C206.982 136.506 206.972 136.493 206.964 136.48L205.832 134.363C205.825 134.35 205.821 134.336 205.819 134.321Z" fill="#0C0C0C"/>
<path opacity="0.2" d="M203.439 135.556C203.436 135.529 203.443 135.501 203.458 135.478C203.474 135.455 203.496 135.438 203.523 135.43C203.55 135.422 203.578 135.424 203.604 135.435C203.629 135.446 203.65 135.465 203.662 135.49L204.173 136.502C204.188 136.53 204.19 136.562 204.18 136.592C204.171 136.622 204.149 136.647 204.121 136.661C204.093 136.675 204.061 136.677 204.031 136.668C204.001 136.658 203.977 136.637 203.962 136.609L203.451 135.596C203.445 135.584 203.441 135.57 203.439 135.556Z" fill="#0C0C0C"/>
<path d="M214.456 96.9023C214.456 96.9023 211.028 80.8308 207.139 82.1692C204.053 83.2309 180.87 102.336 180.166 103.028C178.617 104.554 177.736 106.632 177.719 108.807C177.702 110.981 178.549 113.074 180.074 114.623L198.119 135.27L208.533 125.508L194.839 110.71L214.456 96.9023Z" fill="#A99BFF"/>
<path d="M205.113 103.863C205.085 103.863 205.059 103.852 205.038 103.834C205.018 103.815 205.006 103.789 205.004 103.761L204.545 97.4073C204.544 97.3929 204.546 97.3785 204.55 97.3648C204.555 97.3511 204.562 97.3385 204.571 97.3275C204.581 97.3166 204.592 97.3077 204.605 97.3012C204.618 97.2947 204.632 97.2908 204.646 97.2897C204.661 97.2884 204.675 97.29 204.689 97.2944C204.703 97.2988 204.716 97.3059 204.727 97.3153C204.738 97.3247 204.747 97.3363 204.753 97.3492C204.76 97.3622 204.764 97.3763 204.765 97.3908L205.223 103.745C205.224 103.759 205.222 103.774 205.218 103.787C205.213 103.801 205.206 103.814 205.197 103.825C205.187 103.836 205.176 103.845 205.163 103.851C205.15 103.858 205.136 103.861 205.122 103.863L205.113 103.863Z" fill="#0C0C0C"/>
<path d="M251.061 113.552H251.053C251.024 113.551 250.997 113.538 250.977 113.517C250.958 113.495 250.947 113.467 250.948 113.438L251.706 98.2205C251.709 98.1918 251.722 98.165 251.744 98.1457C251.765 98.1264 251.793 98.116 251.822 98.1165C251.836 98.1172 251.85 98.1208 251.863 98.1269C251.876 98.1331 251.888 98.1417 251.898 98.1524C251.907 98.1631 251.915 98.1756 251.92 98.1892C251.925 98.2028 251.927 98.2172 251.926 98.2316L251.168 113.449C251.166 113.476 251.154 113.502 251.134 113.521C251.115 113.54 251.088 113.551 251.061 113.552Z" fill="#0C0C0C"/>
<path d="M35.5672 132.165C34.2399 132.356 32.9806 132.862 31.8916 133.643C30.8026 134.424 29.9144 135.458 29.2992 136.661C28.7238 137.882 28.5415 139.261 28.778 140.606C29.0145 141.95 29.6579 143.193 30.6181 144.16C31.639 145.345 33.0283 146.138 34.5476 146.404C36.0668 146.671 37.6213 146.393 38.9443 145.62C39.0998 145.501 39.2297 145.352 39.3264 145.18C39.423 145.009 39.4844 144.819 39.507 144.622C39.5295 144.424 39.5127 144.224 39.4575 144.032C39.4023 143.84 39.3099 143.661 39.1858 143.505C39.0616 143.349 38.9083 143.22 38.7349 143.124C38.5614 143.029 38.3715 142.969 38.1762 142.949C37.9809 142.929 37.7844 142.95 37.5982 143.009C37.412 143.068 37.24 143.164 37.0925 143.292C37.3917 143.162 36.9856 143.339 36.9535 143.353C36.9214 143.367 36.7504 143.441 36.6542 143.483C36.6102 143.508 36.5637 143.529 36.5153 143.544C36.4143 143.568 36.312 143.586 36.2089 143.599L35.9559 143.631L35.7361 143.623C35.5009 143.608 35.2717 143.578 35.027 143.541C34.906 143.51 34.787 143.47 34.6706 143.424C34.4586 143.348 34.2507 143.26 34.048 143.161L34.0195 143.096L33.9909 143.03L33.7616 142.883C33.5275 142.725 33.31 142.547 33.0973 142.379L33.064 142.303L33.0307 142.226L32.8406 142.023C32.671 141.834 32.5153 141.632 32.3746 141.42L32.308 141.267L32.2081 141.037L31.9322 140.403L31.8466 140.206L31.7751 139.809L31.7085 139.655C31.7158 139.564 31.7182 139.472 31.7155 139.379C31.7264 139.161 31.7552 138.944 31.8018 138.731L31.8397 138.584C31.8857 138.432 31.9395 138.283 32.001 138.137L32.1351 137.832C32.2513 137.639 32.3785 137.453 32.5161 137.276C32.5944 137.164 32.6882 137.058 32.7713 136.957C32.9601 136.762 33.1607 136.579 33.372 136.409C33.5003 136.354 33.5941 136.248 33.7081 136.159L33.9004 136.075C33.9752 136.043 34.1142 135.982 34.1035 135.987C34.0928 135.992 34.36 135.875 34.4883 135.82C34.6165 135.764 34.9158 135.633 35.1295 135.54C35.2126 135.498 35.2983 135.461 35.386 135.429C35.4715 135.392 35.5571 135.354 35.6426 135.317C35.7281 135.28 36.0915 135.239 36.3231 135.216C36.5547 135.193 36.5547 135.193 36.6806 135.19C36.721 135.167 36.764 135.148 36.8089 135.135C37.0236 135.136 37.2382 135.151 37.4515 135.18L37.8626 135.248L37.9374 135.215L38.0253 135.242C38.2629 135.321 38.5159 135.406 38.7524 135.511C38.896 135.572 39.0364 135.641 39.173 135.718L39.255 135.76L39.2787 135.815C39.4926 135.956 39.7065 136.096 39.9192 136.264L40.2175 136.511L40.4445 136.711C40.8867 137.165 41.2793 137.665 41.6153 138.204L41.6771 138.346C41.7532 138.521 41.8246 138.685 41.9007 138.86C42.0451 139.148 42.1737 139.443 42.2861 139.745C42.3488 139.86 42.4014 139.981 42.443 140.106C42.5191 140.281 42.5287 140.302 42.4763 140.182L42.5715 140.401C42.6465 140.719 42.706 141.031 42.7549 141.348C42.8464 141.936 42.8536 142.533 42.7761 143.12C42.7338 143.511 42.8464 143.905 43.0891 144.216C43.3319 144.528 43.6849 144.73 44.0705 144.78C44.4561 144.829 44.8428 144.721 45.1454 144.48C45.448 144.238 45.6417 143.883 45.684 143.492C46.2546 137.706 41.7446 131.257 35.5672 132.165Z" fill="#2C6AE4"/>
<path d="M47.5982 169.218C47.6183 167.928 47.345 166.649 46.7985 165.473C46.252 164.297 45.446 163.254 44.4399 162.421C43.4121 161.581 42.1758 161.026 40.8606 160.816C39.5455 160.606 38.2001 160.749 36.9658 161.229C35.5322 161.745 34.2838 162.659 33.3708 163.862C32.4579 165.064 31.9193 166.504 31.8198 168.008C31.8409 168.391 32.0122 168.751 32.2974 169.014C32.5826 169.276 32.9594 169.42 33.3479 169.414C33.7365 169.409 34.1064 169.254 34.3794 168.984C34.6523 168.713 34.8069 168.348 34.8105 167.965C34.8958 167.155 35.1927 166.382 35.6723 165.722C36.152 165.062 36.798 164.536 37.5474 164.198C38.2782 163.8 39.1091 163.615 39.9455 163.661C40.7819 163.708 41.5899 163.986 42.2774 164.462C42.9535 164.96 43.5112 165.597 43.9109 166.329C44.3106 167.061 44.5424 167.87 44.5899 168.697C44.6461 169.537 44.4848 170.375 44.1214 171.134C43.758 171.892 43.2043 172.546 42.5123 173.033C41.7026 173.643 40.7535 174.049 39.7463 174.216C38.7391 174.384 37.7037 174.309 36.7286 173.996C36.3438 173.902 35.9378 173.96 35.5984 174.158C35.2589 174.356 35.0132 174.679 34.9142 175.056C34.8276 175.434 34.8925 175.831 35.0954 176.166C35.2983 176.501 35.6235 176.746 36.0036 176.852C41.2596 178.551 47.4315 174.841 47.5982 169.218Z" fill="#2C6AE4"/>
<path d="M24.4283 158.13C24.7543 156.772 24.7848 155.362 24.518 153.995C24.2512 152.628 23.6932 151.336 22.8814 150.204C22.0401 149.078 20.9373 148.173 19.6663 147.563C18.3953 146.953 16.9934 146.658 15.5792 146.702C14.7636 146.758 13.9672 146.98 13.2387 147.353C12.5101 147.725 11.8647 148.241 11.3419 148.869C10.8191 149.496 10.4299 150.223 10.198 151.003C9.96605 151.784 9.89636 152.602 9.99315 153.408C10.1715 154.982 12.6183 154.623 12.4374 153.055C12.3841 152.595 12.4238 152.127 12.5542 151.68C12.6846 151.234 12.9031 150.817 13.1968 150.454C13.4906 150.092 13.8538 149.79 14.2651 149.568C14.6765 149.346 15.1277 149.207 15.5926 149.16C17.5271 148.948 19.5454 150.031 20.7428 151.482C23.1844 154.454 22.6589 159.835 18.9219 161.478C18.0172 161.906 17.0088 162.065 16.0187 161.935C15.0286 161.805 14.0993 161.393 13.3435 160.747C13.0788 160.559 12.7497 160.483 12.4273 160.534C12.1048 160.585 11.8148 160.76 11.6197 161.022C11.434 161.288 11.3576 161.614 11.4062 161.933C11.4547 162.251 11.6246 162.539 11.8807 162.736C13.8553 164.511 16.7567 164.787 19.2289 163.979C20.5247 163.526 21.6835 162.75 22.5941 161.726C23.5047 160.701 24.1363 159.463 24.4283 158.13Z" fill="#2C6AE4"/>
<path d="M298.348 28.5303C295.931 23.4317 297.688 17.4384 302.085 14.0787C302.317 13.9244 302.513 13.7234 302.662 13.4885C302.811 13.2537 302.909 12.9902 302.95 12.7152C302.991 12.4401 302.974 12.1596 302.9 11.8915C302.826 11.6235 302.696 11.3739 302.52 11.1588C302.472 9.73498 301.355 8.34933 299.593 8.8381C294.742 10.2462 289.541 9.78936 285.01 7.55729C282.854 6.48765 280.467 8.5576 281.568 10.8298C284.108 16.0692 282.493 23.0008 277.657 26.3833C275.933 27.5863 275.994 31.2896 278.759 31.0163C281.525 30.743 283.992 29.5532 286.712 28.855C289.71 28.0863 292.173 29.4346 294.394 31.3861C296.431 33.1855 299.564 31.1246 298.348 28.5303ZM289.056 23.6773C287.939 23.634 286.823 23.7754 285.752 24.0961C287.378 20.8864 287.985 17.2569 287.493 13.6927C289.947 14.3534 292.486 14.6395 295.025 14.5413C293.166 17.489 292.262 20.9391 292.437 24.42C291.35 23.987 290.201 23.7307 289.034 23.6606L289.056 23.6773Z" fill="#FFDD55"/>
</g>
<defs>
<clipPath id="clip0_308_854">
<rect width="338" height="264.151" fill="white" transform="translate(0 0.806702)"/>
</clipPath>
</defs>
</svg>
