<svg width="346" height="163" viewBox="0 0 346 163" fill="none" xmlns="http://www.w3.org/2000/svg">
<path d="M102.121 104.862C106.294 96.4672 108.205 87.1282 107.664 77.7684C107.123 68.4086 104.149 59.352 99.0362 51.4936C93.9231 43.6353 86.8478 37.2472 78.5096 32.9607C70.1715 28.6743 60.8591 26.6379 51.4929 27.0528C42.1267 27.4677 33.0308 30.3195 25.1043 35.3264C17.1778 40.3332 10.695 47.3219 6.29673 55.6016C1.89842 63.8813 -0.263183 73.1654 0.025557 82.5363C0.314297 91.9073 3.04339 101.041 7.9431 109.034L14.6748 104.908C10.4931 98.0857 8.16395 90.2908 7.91753 82.2932C7.6711 74.2955 9.51592 66.372 13.2697 59.3057C17.0234 52.2394 22.5561 46.275 29.321 42.0018C36.0858 37.7287 43.8487 35.2948 51.8423 34.9408C59.8359 34.5867 67.7835 36.3247 74.8997 39.9829C82.0159 43.6412 88.0543 49.0931 92.4181 55.7998C96.7819 62.5065 99.3201 70.2359 99.7818 78.224C100.243 86.2121 98.6126 94.1824 95.0505 101.347L102.121 104.862Z" fill="white"/>
<path d="M104.665 129.89C106.319 129.988 107.748 128.726 107.754 127.069C107.777 120.668 106.658 114.305 104.443 108.282C101.883 101.319 97.9118 94.9598 92.7792 89.603C87.6466 84.2462 81.463 80.0071 74.6158 77.1514C67.7686 74.2957 60.4054 72.8849 52.9876 73.0073C45.5698 73.1298 38.2572 74.783 31.508 77.8632C24.7588 80.9434 18.7185 85.3843 13.7655 90.9076C8.81256 96.4309 5.05367 102.918 2.72439 109.961C0.709491 116.054 -0.198106 122.45 0.0360483 128.848C0.0966526 130.503 1.56661 131.717 3.21642 131.565L5.10407 131.39C6.75388 131.237 7.95727 129.776 7.9125 128.119C7.76889 122.806 8.54737 117.501 10.2208 112.44C12.2088 106.429 15.4168 100.893 19.6439 96.1789C23.871 91.4651 29.0261 87.675 34.7862 85.0462C40.5463 82.4174 46.7872 81.0065 53.1179 80.902C59.4487 80.7975 65.7328 82.0015 71.5765 84.4387C77.4202 86.8759 82.6976 90.4937 87.0781 95.0655C91.4585 99.6373 94.8475 105.064 97.0328 111.007C98.8725 116.009 99.8257 121.286 99.8576 126.601C99.8675 128.258 101.118 129.679 102.772 129.777L104.665 129.89Z" fill="white"/>
<path d="M91.71 81.8009C90.5811 102.629 72.7813 118.599 51.9531 117.47C31.1248 116.341 15.1553 98.5412 16.2841 77.7129C17.413 56.8847 35.2128 40.9151 56.0411 42.044C76.8693 43.1729 92.8389 60.9727 91.71 81.8009ZM26.9876 78.2931C26.1791 93.21 37.6163 105.958 52.5332 106.766C67.4501 107.575 80.198 96.1377 81.0065 81.2208C81.815 66.3039 70.3779 53.556 55.4609 52.7475C40.544 51.939 27.7961 63.3761 26.9876 78.2931Z" fill="white"/>
<path d="M136 64C136 69.4 137.2 74.1667 139.6 78.3C142.067 82.4333 145.267 85.6667 149.2 88C153.133 90.3333 157.4 91.5 162 91.5C165.333 91.5 168.367 91.0667 171.1 90.2C173.9 89.3333 176.433 88.1333 178.7 86.6C180.967 85 182.9 83.1667 184.5 81.1V92.3C181.567 94.9 178.367 96.8333 174.9 98.1C171.433 99.3667 167.133 100 162 100C157.133 100 152.567 99.1333 148.3 97.4C144.1 95.6 140.4 93.1 137.2 89.9C134 86.6333 131.5 82.8 129.7 78.4C127.9 74 127 69.2 127 64C127 58.8 127.9 54 129.7 49.6C131.5 45.2 134 41.4 137.2 38.2C140.4 34.9333 144.1 32.4333 148.3 30.7C152.567 28.9 157.133 28 162 28C167.133 28 171.433 28.6333 174.9 29.9C178.367 31.1667 181.567 33.1 184.5 35.7V46.9C182.9 44.8333 180.967 43.0333 178.7 41.5C176.433 39.9 173.9 38.6667 171.1 37.8C168.367 36.9333 165.333 36.5 162 36.5C157.4 36.5 153.133 37.6667 149.2 40C145.267 42.3333 142.067 45.5667 139.6 49.7C137.2 53.7667 136 58.5333 136 64ZM204.457 64C204.457 69.2667 205.59 73.9667 207.857 78.1C210.19 82.2333 213.357 85.5 217.357 87.9C221.357 90.3 225.89 91.5 230.957 91.5C236.09 91.5 240.624 90.3 244.557 87.9C248.557 85.5 251.69 82.2333 253.957 78.1C256.29 73.9667 257.457 69.2667 257.457 64C257.457 58.7333 256.29 54.0333 253.957 49.9C251.69 45.7667 248.557 42.5 244.557 40.1C240.624 37.7 236.09 36.5 230.957 36.5C225.89 36.5 221.357 37.7 217.357 40.1C213.357 42.5 210.19 45.7667 207.857 49.9C205.59 54.0333 204.457 58.7333 204.457 64ZM195.457 64C195.457 58.8667 196.324 54.1333 198.057 49.8C199.857 45.4 202.357 41.6 205.557 38.4C208.757 35.1333 212.524 32.6 216.857 30.8C221.19 28.9333 225.89 28 230.957 28C236.09 28 240.79 28.9333 245.057 30.8C249.39 32.6 253.157 35.1333 256.357 38.4C259.557 41.6 262.024 45.4 263.757 49.8C265.557 54.1333 266.457 58.8667 266.457 64C266.457 69.0667 265.557 73.8 263.757 78.2C262.024 82.6 259.557 86.4333 256.357 89.7C253.157 92.9 249.39 95.4333 245.057 97.3C240.79 99.1 236.09 100 230.957 100C225.89 100 221.19 99.1 216.857 97.3C212.524 95.4333 208.757 92.9 205.557 89.7C202.357 86.4333 199.857 82.6 198.057 78.2C196.324 73.8 195.457 69.0667 195.457 64ZM283.461 64C283.461 69.4 284.661 74.1667 287.061 78.3C289.528 82.4333 292.728 85.6667 296.661 88C300.594 90.3333 304.861 91.5 309.461 91.5C312.794 91.5 315.828 91.0667 318.561 90.2C321.361 89.3333 323.894 88.1333 326.161 86.6C328.428 85 330.361 83.1667 331.961 81.1V92.3C329.028 94.9 325.828 96.8333 322.361 98.1C318.894 99.3667 314.594 100 309.461 100C304.594 100 300.028 99.1333 295.761 97.4C291.561 95.6 287.861 93.1 284.661 89.9C281.461 86.6333 278.961 82.8 277.161 78.4C275.361 74 274.461 69.2 274.461 64C274.461 58.8 275.361 54 277.161 49.6C278.961 45.2 281.461 41.4 284.661 38.2C287.861 34.9333 291.561 32.4333 295.761 30.7C300.028 28.9 304.594 28 309.461 28C314.594 28 318.894 28.6333 322.361 29.9C325.828 31.1667 329.028 33.1 331.961 35.7V46.9C330.361 44.8333 328.428 43.0333 326.161 41.5C323.894 39.9 321.361 38.6667 318.561 37.8C315.828 36.9333 312.794 36.5 309.461 36.5C304.861 36.5 300.594 37.6667 296.661 40C292.728 42.3333 289.528 45.5667 287.061 49.7C284.661 53.7667 283.461 58.5333 283.461 64Z" fill="white"/>
<path d="M132.664 122.48C132.664 123.248 132.824 123.928 133.144 124.52C133.48 125.112 133.928 125.584 134.488 125.936C135.064 126.272 135.712 126.44 136.432 126.44C137.024 126.44 137.576 126.352 138.088 126.176C138.616 125.984 139.072 125.736 139.456 125.432C139.84 125.112 140.112 124.776 140.272 124.424V126.824C139.888 127.272 139.336 127.624 138.616 127.88C137.912 128.12 137.184 128.24 136.432 128.24C135.36 128.24 134.392 127.992 133.528 127.496C132.664 127 131.976 126.32 131.464 125.456C130.968 124.576 130.72 123.584 130.72 122.48C130.72 121.36 130.968 120.368 131.464 119.504C131.976 118.64 132.664 117.96 133.528 117.464C134.392 116.968 135.36 116.72 136.432 116.72C137.184 116.72 137.912 116.848 138.616 117.104C139.336 117.344 139.888 117.688 140.272 118.136V120.536C140.112 120.168 139.84 119.832 139.456 119.528C139.072 119.224 138.616 118.984 138.088 118.808C137.576 118.616 137.024 118.52 136.432 118.52C135.712 118.52 135.064 118.688 134.488 119.024C133.928 119.36 133.48 119.832 133.144 120.44C132.824 121.032 132.664 121.712 132.664 122.48ZM145.061 116.96H147.221L150.341 124.76L153.461 116.96H155.621L150.341 128.84L145.061 116.96ZM160.082 127.04C160.082 126.672 160.21 126.36 160.466 126.104C160.738 125.848 161.05 125.72 161.402 125.72C161.77 125.72 162.082 125.848 162.338 126.104C162.594 126.36 162.722 126.672 162.722 127.04C162.722 127.392 162.594 127.704 162.338 127.976C162.082 128.232 161.77 128.36 161.402 128.36C161.05 128.36 160.738 128.232 160.466 127.976C160.21 127.704 160.082 127.392 160.082 127.04ZM171.261 122.48C171.261 123.248 171.421 123.928 171.741 124.52C172.077 125.112 172.525 125.584 173.085 125.936C173.661 126.272 174.309 126.44 175.029 126.44C175.621 126.44 176.173 126.352 176.685 126.176C177.213 125.984 177.669 125.736 178.053 125.432C178.437 125.112 178.709 124.776 178.869 124.424V126.824C178.485 127.272 177.933 127.624 177.213 127.88C176.509 128.12 175.781 128.24 175.029 128.24C173.957 128.24 172.989 127.992 172.125 127.496C171.261 127 170.573 126.32 170.061 125.456C169.565 124.576 169.317 123.584 169.317 122.48C169.317 121.36 169.565 120.368 170.061 119.504C170.573 118.64 171.261 117.96 172.125 117.464C172.989 116.968 173.957 116.72 175.029 116.72C175.781 116.72 176.509 116.848 177.213 117.104C177.933 117.344 178.485 117.688 178.869 118.136V120.536C178.709 120.168 178.437 119.832 178.053 119.528C177.669 119.224 177.213 118.984 176.685 118.808C176.173 118.616 175.621 118.52 175.029 118.52C174.309 118.52 173.661 118.688 173.085 119.024C172.525 119.36 172.077 119.832 171.741 120.44C171.421 121.032 171.261 121.712 171.261 122.48ZM184.498 122.48C184.498 121.36 184.746 120.368 185.242 119.504C185.754 118.64 186.442 117.96 187.306 117.464C188.17 116.968 189.138 116.72 190.21 116.72C191.298 116.72 192.266 116.968 193.114 117.464C193.978 117.96 194.658 118.64 195.154 119.504C195.666 120.368 195.922 121.36 195.922 122.48C195.922 123.584 195.666 124.576 195.154 125.456C194.658 126.32 193.978 127 193.114 127.496C192.266 127.992 191.298 128.24 190.21 128.24C189.138 128.24 188.17 127.992 187.306 127.496C186.442 127 185.754 126.32 185.242 125.456C184.746 124.576 184.498 123.584 184.498 122.48ZM186.442 122.48C186.442 123.248 186.602 123.928 186.922 124.52C187.258 125.112 187.706 125.584 188.266 125.936C188.842 126.272 189.49 126.44 190.21 126.44C190.93 126.44 191.57 126.272 192.13 125.936C192.706 125.584 193.154 125.112 193.474 124.52C193.81 123.928 193.978 123.248 193.978 122.48C193.978 121.712 193.81 121.032 193.474 120.44C193.154 119.832 192.706 119.36 192.13 119.024C191.57 118.688 190.93 118.52 190.21 118.52C189.49 118.52 188.842 118.688 188.266 119.024C187.706 119.36 187.258 119.832 186.922 120.44C186.602 121.032 186.442 121.712 186.442 122.48ZM203.023 124.592C203.023 125.008 203.119 125.368 203.311 125.672C203.519 125.976 203.799 126.208 204.151 126.368C204.519 126.512 204.935 126.584 205.399 126.584C205.991 126.584 206.519 126.464 206.983 126.224C207.463 125.984 207.839 125.648 208.111 125.216C208.399 124.768 208.543 124.256 208.543 123.68L208.927 125.12C208.927 125.824 208.711 126.408 208.279 126.872C207.863 127.336 207.343 127.68 206.719 127.904C206.111 128.128 205.503 128.24 204.895 128.24C204.223 128.24 203.591 128.104 202.999 127.832C202.423 127.544 201.959 127.136 201.607 126.608C201.255 126.08 201.079 125.44 201.079 124.688C201.079 123.616 201.455 122.76 202.207 122.12C202.975 121.464 204.039 121.136 205.399 121.136C206.199 121.136 206.863 121.232 207.391 121.424C207.935 121.6 208.367 121.808 208.687 122.048C209.007 122.272 209.223 122.456 209.335 122.6V123.728C208.775 123.344 208.199 123.072 207.607 122.912C207.015 122.736 206.383 122.648 205.711 122.648C205.087 122.648 204.575 122.728 204.175 122.888C203.791 123.048 203.503 123.272 203.311 123.56C203.119 123.848 203.023 124.192 203.023 124.592ZM202.735 119.504L201.799 118.088C202.215 117.784 202.783 117.48 203.503 117.176C204.239 116.872 205.119 116.72 206.143 116.72C207.007 116.72 207.759 116.856 208.399 117.128C209.055 117.384 209.559 117.76 209.911 118.256C210.279 118.752 210.463 119.36 210.463 120.08V128H208.543V120.344C208.543 119.96 208.479 119.648 208.351 119.408C208.223 119.152 208.039 118.952 207.799 118.808C207.575 118.664 207.311 118.56 207.007 118.496C206.703 118.432 206.383 118.4 206.047 118.4C205.503 118.4 205.007 118.464 204.559 118.592C204.127 118.72 203.759 118.872 203.455 119.048C203.151 119.224 202.911 119.376 202.735 119.504ZM218.178 122.48C218.178 123.248 218.338 123.928 218.658 124.52C218.994 125.112 219.442 125.584 220.002 125.936C220.578 126.272 221.226 126.44 221.946 126.44C222.538 126.44 223.09 126.352 223.602 126.176C224.13 125.984 224.586 125.736 224.97 125.432C225.354 125.112 225.626 124.776 225.786 124.424V126.824C225.402 127.272 224.85 127.624 224.13 127.88C223.426 128.12 222.698 128.24 221.946 128.24C220.874 128.24 219.906 127.992 219.042 127.496C218.178 127 217.49 126.32 216.978 125.456C216.482 124.576 216.234 123.584 216.234 122.48C216.234 121.36 216.482 120.368 216.978 119.504C217.49 118.64 218.178 117.96 219.042 117.464C219.906 116.968 220.874 116.72 221.946 116.72C222.698 116.72 223.426 116.848 224.13 117.104C224.85 117.344 225.402 117.688 225.786 118.136V120.536C225.626 120.168 225.354 119.832 224.97 119.528C224.586 119.224 224.13 118.984 223.602 118.808C223.09 118.616 222.538 118.52 221.946 118.52C221.226 118.52 220.578 118.688 220.002 119.024C219.442 119.36 218.994 119.832 218.658 120.44C218.338 121.032 218.178 121.712 218.178 122.48ZM234.295 109.28V128H232.375V109.28H234.295ZM239.455 121.28C239.455 120.368 239.255 119.68 238.855 119.216C238.471 118.752 237.887 118.52 237.103 118.52C236.543 118.52 236.047 118.64 235.615 118.88C235.199 119.12 234.871 119.448 234.631 119.864C234.407 120.28 234.295 120.752 234.295 121.28H233.671C233.671 120.4 233.839 119.624 234.175 118.952C234.511 118.264 234.967 117.72 235.543 117.32C236.135 116.92 236.815 116.72 237.583 116.72C238.351 116.72 239.015 116.88 239.575 117.2C240.151 117.52 240.591 118 240.895 118.64C241.215 119.28 241.375 120.08 241.375 121.04V128H239.455V121.28ZM249.064 127.04C249.064 126.672 249.192 126.36 249.448 126.104C249.72 125.848 250.032 125.72 250.384 125.72C250.752 125.72 251.064 125.848 251.32 126.104C251.576 126.36 251.704 126.672 251.704 127.04C251.704 127.392 251.576 127.704 251.32 127.976C251.064 128.232 250.752 128.36 250.384 128.36C250.032 128.36 249.72 128.232 249.448 127.976C249.192 127.704 249.064 127.392 249.064 127.04ZM260.244 122.48C260.244 123.248 260.404 123.928 260.724 124.52C261.06 125.112 261.508 125.584 262.068 125.936C262.644 126.272 263.292 126.44 264.012 126.44C264.604 126.44 265.156 126.352 265.668 126.176C266.196 125.984 266.652 125.736 267.036 125.432C267.42 125.112 267.692 124.776 267.852 124.424V126.824C267.468 127.272 266.916 127.624 266.196 127.88C265.492 128.12 264.764 128.24 264.012 128.24C262.94 128.24 261.972 127.992 261.108 127.496C260.244 127 259.556 126.32 259.044 125.456C258.548 124.576 258.3 123.584 258.3 122.48C258.3 121.36 258.548 120.368 259.044 119.504C259.556 118.64 260.244 117.96 261.108 117.464C261.972 116.968 262.94 116.72 264.012 116.72C264.764 116.72 265.492 116.848 266.196 117.104C266.916 117.344 267.468 117.688 267.852 118.136V120.536C267.692 120.168 267.42 119.832 267.036 119.528C266.652 119.224 266.196 118.984 265.668 118.808C265.156 118.616 264.604 118.52 264.012 118.52C263.292 118.52 262.644 118.688 262.068 119.024C261.508 119.36 261.06 119.832 260.724 120.44C260.404 121.032 260.244 121.712 260.244 122.48ZM275.305 124.592C275.305 125.008 275.401 125.368 275.593 125.672C275.801 125.976 276.081 126.208 276.433 126.368C276.801 126.512 277.217 126.584 277.681 126.584C278.273 126.584 278.801 126.464 279.265 126.224C279.745 125.984 280.121 125.648 280.393 125.216C280.681 124.768 280.825 124.256 280.825 123.68L281.209 125.12C281.209 125.824 280.993 126.408 280.561 126.872C280.145 127.336 279.625 127.68 279.001 127.904C278.393 128.128 277.785 128.24 277.177 128.24C276.505 128.24 275.873 128.104 275.281 127.832C274.705 127.544 274.241 127.136 273.889 126.608C273.537 126.08 273.361 125.44 273.361 124.688C273.361 123.616 273.737 122.76 274.489 122.12C275.257 121.464 276.321 121.136 277.681 121.136C278.481 121.136 279.145 121.232 279.673 121.424C280.217 121.6 280.649 121.808 280.969 122.048C281.289 122.272 281.505 122.456 281.617 122.6V123.728C281.057 123.344 280.481 123.072 279.889 122.912C279.297 122.736 278.665 122.648 277.993 122.648C277.369 122.648 276.857 122.728 276.457 122.888C276.073 123.048 275.785 123.272 275.593 123.56C275.401 123.848 275.305 124.192 275.305 124.592ZM275.017 119.504L274.081 118.088C274.497 117.784 275.065 117.48 275.785 117.176C276.521 116.872 277.401 116.72 278.425 116.72C279.289 116.72 280.041 116.856 280.681 117.128C281.337 117.384 281.841 117.76 282.193 118.256C282.561 118.752 282.745 119.36 282.745 120.08V128H280.825V120.344C280.825 119.96 280.761 119.648 280.633 119.408C280.505 119.152 280.321 118.952 280.081 118.808C279.857 118.664 279.593 118.56 279.289 118.496C278.985 118.432 278.665 118.4 278.329 118.4C277.785 118.4 277.289 118.464 276.841 118.592C276.409 118.72 276.041 118.872 275.737 119.048C275.433 119.224 275.193 119.376 275.017 119.504ZM291.515 116.96V128H289.595V116.96H291.515ZM294.851 119.072C294.595 118.88 294.363 118.744 294.155 118.664C293.947 118.568 293.683 118.52 293.363 118.52C292.883 118.52 292.507 118.64 292.235 118.88C291.963 119.12 291.771 119.448 291.659 119.864C291.563 120.28 291.515 120.752 291.515 121.28H290.651C290.651 120.4 290.803 119.624 291.107 118.952C291.427 118.264 291.835 117.72 292.331 117.32C292.827 116.92 293.331 116.72 293.843 116.72C294.243 116.72 294.611 116.776 294.947 116.888C295.299 116.984 295.619 117.184 295.907 117.488L294.851 119.072ZM305.342 128.24C304.318 128.24 303.406 128 302.606 127.52C301.822 127.024 301.206 126.344 300.758 125.48C300.326 124.616 300.11 123.616 300.11 122.48C300.11 121.328 300.334 120.32 300.782 119.456C301.246 118.592 301.886 117.92 302.702 117.44C303.534 116.96 304.494 116.72 305.582 116.72C306.67 116.72 307.598 116.952 308.366 117.416C309.15 117.864 309.75 118.512 310.166 119.36C310.582 120.208 310.79 121.216 310.79 122.384C310.79 122.496 310.782 122.616 310.766 122.744C310.766 122.856 310.766 122.928 310.766 122.96H301.334V121.328H309.254L308.486 122.432C308.534 122.352 308.582 122.232 308.63 122.072C308.678 121.896 308.702 121.752 308.702 121.64C308.702 120.984 308.566 120.416 308.294 119.936C308.038 119.456 307.678 119.08 307.214 118.808C306.75 118.536 306.206 118.4 305.582 118.4C304.846 118.4 304.214 118.56 303.686 118.88C303.174 119.184 302.774 119.632 302.486 120.224C302.214 120.8 302.07 121.512 302.054 122.36C302.054 123.224 302.19 123.96 302.462 124.568C302.734 125.176 303.134 125.64 303.662 125.96C304.19 126.28 304.83 126.44 305.582 126.44C306.334 126.44 306.998 126.28 307.574 125.96C308.15 125.624 308.638 125.12 309.038 124.448L310.598 125.432C310.022 126.36 309.294 127.064 308.414 127.544C307.55 128.008 306.526 128.24 305.342 128.24ZM321.294 128.24C320.27 128.24 319.358 128 318.558 127.52C317.774 127.024 317.158 126.344 316.71 125.48C316.278 124.616 316.062 123.616 316.062 122.48C316.062 121.328 316.286 120.32 316.734 119.456C317.198 118.592 317.838 117.92 318.654 117.44C319.486 116.96 320.446 116.72 321.534 116.72C322.622 116.72 323.55 116.952 324.318 117.416C325.102 117.864 325.702 118.512 326.118 119.36C326.534 120.208 326.742 121.216 326.742 122.384C326.742 122.496 326.734 122.616 326.718 122.744C326.718 122.856 326.718 122.928 326.718 122.96H317.286V121.328H325.206L324.438 122.432C324.486 122.352 324.534 122.232 324.582 122.072C324.63 121.896 324.654 121.752 324.654 121.64C324.654 120.984 324.518 120.416 324.246 119.936C323.99 119.456 323.63 119.08 323.166 118.808C322.702 118.536 322.158 118.4 321.534 118.4C320.798 118.4 320.166 118.56 319.638 118.88C319.126 119.184 318.726 119.632 318.438 120.224C318.166 120.8 318.022 121.512 318.006 122.36C318.006 123.224 318.142 123.96 318.414 124.568C318.686 125.176 319.086 125.64 319.614 125.96C320.142 126.28 320.782 126.44 321.534 126.44C322.286 126.44 322.95 126.28 323.526 125.96C324.102 125.624 324.59 125.12 324.99 124.448L326.55 125.432C325.974 126.36 325.246 127.064 324.366 127.544C323.502 128.008 322.478 128.24 321.294 128.24ZM334.893 116.96V128H332.973V116.96H334.893ZM338.229 119.072C337.973 118.88 337.741 118.744 337.533 118.664C337.325 118.568 337.061 118.52 336.741 118.52C336.261 118.52 335.885 118.64 335.613 118.88C335.341 119.12 335.149 119.448 335.037 119.864C334.941 120.28 334.893 120.752 334.893 121.28H334.029C334.029 120.4 334.181 119.624 334.485 118.952C334.805 118.264 335.213 117.72 335.709 117.32C336.205 116.92 336.709 116.72 337.221 116.72C337.621 116.72 337.989 116.776 338.325 116.888C338.677 116.984 338.997 117.184 339.285 117.488L338.229 119.072Z" fill="white"/>
</svg>
