<svg width="515" height="336" viewBox="0 0 515 336" fill="none" xmlns="http://www.w3.org/2000/svg">
<path d="M7.06491 27.9317C6.97404 27.9317 6.88407 27.9138 6.80012 27.879C6.71618 27.8442 6.63991 27.7932 6.57569 27.7289C6.51146 27.6646 6.46054 27.5883 6.42582 27.5043C6.3911 27.4204 6.37327 27.3304 6.37335 27.2395V7.7125C6.37062 7.61994 6.38651 7.52776 6.42005 7.44144C6.4536 7.35512 6.50412 7.27642 6.56864 7.20998C6.63315 7.14354 6.71034 7.09073 6.79564 7.05466C6.88094 7.01859 6.9726 7 7.06521 7C7.15782 7 7.24948 7.01859 7.33478 7.05466C7.42008 7.09073 7.49727 7.14354 7.56178 7.20998C7.6263 7.27642 7.67682 7.35512 7.71037 7.44144C7.74391 7.52776 7.7598 7.61994 7.75707 7.7125V27.2395C7.75715 27.3304 7.7393 27.4205 7.70455 27.5045C7.66979 27.5885 7.61881 27.6648 7.55452 27.7291C7.49023 27.7934 7.4139 27.8444 7.32988 27.8791C7.24587 27.9139 7.15583 27.9318 7.06491 27.9317Z" fill="#262626"/>
<path d="M13.435 18.1687H0.692163C0.50859 18.1687 0.332536 18.0958 0.20273 17.966C0.0729241 17.8362 0 17.6602 0 17.4766C0 17.293 0.0729241 17.117 0.20273 16.9872C0.332536 16.8573 0.50859 16.7844 0.692163 16.7844H13.435C13.6186 16.7844 13.7946 16.8573 13.9244 16.9872C14.0543 17.117 14.1272 17.293 14.1272 17.4766C14.1272 17.6602 14.0543 17.8362 13.9244 17.966C13.7946 18.0958 13.6186 18.1687 13.435 18.1687Z" fill="#262626"/>
<path d="M461.646 230.627C461.463 230.627 461.287 230.554 461.157 230.424C461.027 230.294 460.954 230.118 460.954 229.934V200.231C460.954 200.048 461.027 199.872 461.157 199.742C461.287 199.612 461.463 199.539 461.646 199.539C461.83 199.539 462.006 199.612 462.136 199.742C462.265 199.872 462.338 200.048 462.338 200.231V229.934C462.338 230.118 462.265 230.294 462.136 230.424C462.006 230.553 461.83 230.626 461.646 230.627Z" fill="#262626"/>
<path d="M471.34 215.774H451.956C451.772 215.774 451.596 215.702 451.466 215.572C451.337 215.442 451.264 215.266 451.264 215.082C451.264 214.899 451.337 214.723 451.466 214.593C451.596 214.463 451.772 214.39 451.956 214.39H471.34C471.524 214.39 471.7 214.463 471.829 214.593C471.959 214.723 472.032 214.899 472.032 215.082C472.032 215.266 471.959 215.442 471.829 215.572C471.7 215.702 471.524 215.774 471.34 215.774Z" fill="#262626"/>
<path d="M332.626 16.2357C332.535 16.2358 332.445 16.2179 332.361 16.1832C332.277 16.1484 332.2 16.0974 332.136 16.0331C332.072 15.9689 332.021 15.8925 331.986 15.8085C331.951 15.7245 331.934 15.6345 331.934 15.5435V0.691922C331.934 0.508349 332.007 0.332293 332.136 0.202487C332.266 0.0726812 332.442 -0.000244141 332.626 -0.000244141C332.809 -0.000244141 332.985 0.0726812 333.115 0.202487C333.245 0.332293 333.318 0.508349 333.318 0.691922V15.5435C333.318 15.6345 333.3 15.7245 333.265 15.8085C333.231 15.8925 333.18 15.9689 333.115 16.0331C333.051 16.0974 332.975 16.1484 332.891 16.1832C332.807 16.2179 332.717 16.2358 332.626 16.2357Z" fill="#262626"/>
<path d="M337.471 8.81009H327.779C327.688 8.81009 327.598 8.7922 327.514 8.75741C327.43 8.72263 327.354 8.67164 327.29 8.60736C327.225 8.54309 327.174 8.46679 327.14 8.38282C327.105 8.29884 327.087 8.20883 327.087 8.11794C327.087 8.02704 327.105 7.93704 327.14 7.85306C327.174 7.76908 327.225 7.69279 327.29 7.62851C327.354 7.56424 327.43 7.51325 327.514 7.47846C327.598 7.44368 327.688 7.42578 327.779 7.42578H337.471C337.655 7.42578 337.831 7.49871 337.961 7.62851C338.09 7.75832 338.163 7.93436 338.163 8.11794C338.163 8.30151 338.09 8.47756 337.961 8.60736C337.831 8.73717 337.655 8.81009 337.471 8.81009Z" fill="#262626"/>
<path d="M120.667 52.9607C121.721 53.2901 122.744 53.6671 123.77 54.0498L125.296 54.646L126.789 55.2614C127.284 55.4781 127.812 55.6384 128.343 55.8416C128.853 56.022 129.326 56.2947 129.738 56.6462C130.661 57.4103 131.367 58.4037 131.785 59.5268L131.624 59.7973C130.44 59.975 129.23 59.8381 128.115 59.4003C127.606 59.2117 127.137 58.9287 126.732 58.5662C126.324 58.2039 125.925 57.8208 125.499 57.4911L124.22 56.4788L122.968 55.4363C122.14 54.7179 121.309 54.0084 120.515 53.2478L120.667 52.9607Z" fill="#71D392"/>
<path d="M117.703 53.2619C117.377 54.3218 116.997 55.339 116.617 56.3706L116.021 57.8966L115.402 59.3839C115.189 59.8839 115.025 60.4067 114.822 60.9376C114.644 61.4503 114.373 61.9254 114.021 62.3384C113.254 63.2592 112.262 63.9647 111.14 64.3855L110.866 64.2185C110.689 63.0344 110.826 61.8243 111.263 60.7098C111.457 60.203 111.739 59.7348 112.097 59.3272C112.463 58.9241 112.846 58.5257 113.181 58.0957L114.185 56.8146L115.227 55.5627C115.946 54.7344 116.655 53.9037 117.421 53.1068L117.703 53.2619Z" fill="#71D392"/>
<path d="M117.173 51.2704C116.122 50.9466 115.096 50.564 114.073 50.1869L112.547 49.5907L111.06 48.9721C110.56 48.7586 110.028 48.5927 109.501 48.3951C108.989 48.2121 108.515 47.9376 108.102 47.5849C107.18 46.8227 106.475 45.8311 106.058 44.7099L106.216 44.4339C107.401 44.2562 108.611 44.3931 109.725 44.8309C110.234 45.0195 110.704 45.3024 111.108 45.6649C111.516 46.0273 111.915 46.4103 112.345 46.7456L113.654 47.7332L114.909 48.7812C115.734 49.494 116.559 50.2068 117.361 50.9697L117.173 51.2704Z" fill="#71D392"/>
<path d="M119.519 49.5618C119.849 48.5075 120.226 47.4846 120.603 46.4618L121.199 44.9358L121.814 43.443C122.031 42.9485 122.197 42.417 122.395 41.8893C122.573 41.3781 122.846 40.9049 123.199 40.4941C123.961 39.5721 124.953 38.8672 126.074 38.4501L126.35 38.6083C126.528 39.7925 126.391 41.0025 125.953 42.117C125.765 42.6263 125.482 43.0954 125.119 43.4997C124.757 43.9083 124.374 44.3068 124.038 44.7367L123.032 46.0123L121.984 47.2674C121.271 48.0925 120.561 48.9232 119.795 49.7201L119.519 49.5618Z" fill="#71D392"/>
<path d="M43.6514 215.086C44.7058 215.416 45.7286 215.793 46.7546 216.175L48.2806 216.771L49.7734 217.387C50.2679 217.604 50.7962 217.764 51.3271 217.967C51.8376 218.147 52.3106 218.42 52.7224 218.772C53.6456 219.536 54.3516 220.529 54.7695 221.652L54.6081 221.923C53.424 222.101 52.2139 221.964 51.0994 221.526C50.5902 221.337 50.1211 221.054 49.7167 220.692C49.3081 220.329 48.9097 219.946 48.4829 219.617L47.2042 218.604L45.9523 217.562C45.1239 216.843 44.2932 216.134 43.4996 215.373L43.6514 215.086Z" fill="#F7BE8F"/>
<path d="M40.6873 215.387C40.3612 216.447 39.9809 217.464 39.6015 218.495L39.0053 220.021L38.3867 221.509C38.1731 222.009 38.0096 222.531 37.8065 223.062C37.6287 223.575 37.357 224.05 37.005 224.463C36.2387 225.384 35.246 226.089 34.1245 226.51L33.8508 226.343C33.673 225.159 33.8099 223.949 34.2477 222.835C34.4413 222.328 34.7238 221.86 35.0818 221.452C35.4474 221.049 35.8304 220.65 36.1657 220.22L37.1692 218.939L38.2118 217.687C38.9301 216.859 39.6397 216.028 40.4058 215.232L40.6873 215.387Z" fill="#F7BE8F"/>
<path d="M40.1575 213.395C39.1064 213.072 38.0804 212.689 37.0576 212.312L35.5315 211.716L34.0443 211.097C33.5443 210.884 33.0127 210.718 32.485 210.52C31.9736 210.337 31.4997 210.063 31.0866 209.71C30.1646 208.948 29.4597 207.956 29.0426 206.835L29.2008 206.559C30.385 206.381 31.595 206.518 32.7095 206.956C33.2188 207.144 33.6879 207.427 34.0922 207.79C34.5009 208.152 34.8993 208.535 35.3292 208.871L36.638 209.858L37.8931 210.906C38.7183 211.619 39.5434 212.332 40.3458 213.095L40.1575 213.395Z" fill="#F7BE8F"/>
<path d="M42.5036 211.687C42.8329 210.633 43.21 209.61 43.5871 208.587L44.1833 207.061L44.7987 205.568C45.0155 205.074 45.1813 204.542 45.3789 204.015C45.5578 203.504 45.8307 203.03 46.1836 202.62C46.9458 201.698 47.9374 200.993 49.0586 200.576L49.3346 200.734C49.5123 201.918 49.3754 203.128 48.9376 204.243C48.749 204.752 48.466 205.221 48.1035 205.625C47.7412 206.034 47.3582 206.432 47.0229 206.862L46.0161 208.138L44.9681 209.393C44.2553 210.218 43.5457 211.049 42.7796 211.846L42.5036 211.687Z" fill="#F7BE8F"/>
<path d="M504.837 80.4911C502.321 75.1839 504.15 68.9455 508.727 65.4485C508.968 65.2879 509.172 65.0786 509.327 64.8342C509.482 64.5897 509.584 64.3155 509.627 64.0292C509.67 63.7429 509.652 63.4509 509.575 63.1719C509.498 62.8929 509.363 62.6331 509.18 62.4092C509.129 60.9271 507.967 59.4848 506.133 59.9936C501.084 61.4593 495.67 60.9838 490.954 58.6604C488.709 57.547 486.224 59.7016 487.371 62.0667C490.014 67.5204 488.334 74.7355 483.299 78.2562C481.505 79.5084 481.569 83.3632 484.447 83.0787C487.325 82.7942 489.894 81.5557 492.725 80.829C495.846 80.0289 498.41 81.4323 500.721 83.4636C502.842 85.3366 506.103 83.1915 504.837 80.4911ZM495.165 75.4396C494.002 75.3945 492.84 75.5417 491.726 75.8755C493.418 72.5346 494.05 68.7567 493.538 65.0467C496.092 65.7345 498.735 66.0322 501.378 65.93C499.443 68.9982 498.502 72.5894 498.684 76.2126C497.553 75.762 496.357 75.4951 495.142 75.4222L495.165 75.4396Z" fill="#FFDD55"/>
<g clip-path="url(#clip0_844_723)">
<path d="M406.238 42.7166H353.284V111.642H406.238V42.7166Z" fill="#F4F4F4"/>
<path d="M406.237 111.642H407.955V42.7169H406.237V111.642Z" fill="#F4F4F4"/>
<path opacity="0.05" d="M406.237 111.642H407.955V42.7169H406.237V111.642Z" fill="#292A2E"/>
<path opacity="0.05" d="M396.591 55.272H362.93V99.0863H396.591V55.272Z" fill="#292A2E"/>
<path opacity="0.03" d="M396.591 55.272H394.837V99.0863H396.591V55.272Z" fill="#292A2E"/>
<path d="M449.546 128.592H406.238V172.297H449.546V128.592Z" fill="#F4F4F4"/>
<path opacity="0.05" d="M441.656 136.553H414.127V164.336H441.656V136.553Z" fill="#292A2E"/>
<path d="M449.545 172.298H451.263V128.593H449.545V172.298Z" fill="#F4F4F4"/>
<path opacity="0.05" d="M449.545 172.298H451.263V128.593H449.545V172.298Z" fill="#292A2E"/>
<path opacity="0.03" d="M441.657 136.553H439.902V164.336H441.657V136.553Z" fill="#292A2E"/>
<path d="M293.213 38.2874H148.948V182.552H293.213V38.2874Z" fill="#F4F4F4"/>
<path d="M294.866 38.2874H293.212V182.552H294.866V38.2874Z" fill="#F4F4F4"/>
<path opacity="0.05" d="M294.866 38.2874H293.212V182.552H294.866V38.2874Z" fill="#292A2E"/>
<path opacity="0.05" d="M258.263 137.698V99.9536H227.345V121.882H179.453V160.71H159.098V182.552H179.453H183.374H286.273V137.698H258.263Z" fill="#292A2E"/>
<path opacity="0.34" d="M253.828 104.051H231.312V108.149H253.828V104.051Z" fill="#FFFFFA"/>
<path opacity="0.34" d="M253.828 112.544H231.312V116.643H253.828V112.544Z" fill="#FFFFFA"/>
<path opacity="0.34" d="M253.828 121.036H231.312V125.134H253.828V121.036Z" fill="#FFFFFA"/>
<path opacity="0.34" d="M282.28 141.676H278.13V145.774H282.28V141.676Z" fill="#FFFFFA"/>
<path opacity="0.34" d="M282.28 150.168H278.13V154.266H282.28V150.168Z" fill="#FFFFFA"/>
<path opacity="0.34" d="M282.28 158.661H278.13V162.759H282.28V158.661Z" fill="#FFFFFA"/>
<path opacity="0.34" d="M274.603 141.676H270.453V145.774H274.603V141.676Z" fill="#FFFFFA"/>
<path opacity="0.34" d="M274.603 150.168H270.453V154.266H274.603V150.168Z" fill="#FFFFFA"/>
<path opacity="0.34" d="M274.603 158.661H270.453V162.759H274.603V158.661Z" fill="#FFFFFA"/>
<path opacity="0.34" d="M267.133 141.676H262.983V145.774H267.133V141.676Z" fill="#FFFFFA"/>
<path opacity="0.34" d="M267.133 150.168H262.983V154.266H267.133V150.168Z" fill="#FFFFFA"/>
<path opacity="0.34" d="M267.133 158.661H262.983V162.759H267.133V158.661Z" fill="#FFFFFA"/>
<path d="M293.213 109.61H264.184V38.2874H261.784V109.61H183.375V38.2874H180.974V109.61H148.948V112.011H180.974V182.552H183.375V112.011H261.784V182.552H264.184V112.011H293.213V109.61Z" fill="white"/>
<path d="M298.959 182.378H143.2V187.176H298.959V182.378Z" fill="#F4F4F4"/>
<path opacity="0.1" d="M298.959 182.378H143.2V187.176H298.959V182.378Z" fill="#292A2E"/>
<path opacity="0.1" d="M301.209 182.378H298.96V187.176H301.209V182.378Z" fill="#292A2E"/>
<path opacity="0.1" d="M301.209 182.378H298.96V187.176H301.209V182.378Z" fill="#292A2E"/>
<path d="M161.816 335.176H434.219C434.25 335.177 434.28 335.172 434.309 335.161C434.337 335.15 434.363 335.134 434.385 335.113C434.407 335.092 434.424 335.066 434.436 335.038C434.448 335.01 434.454 334.98 434.454 334.949C434.454 334.919 434.448 334.889 434.436 334.861C434.424 334.833 434.407 334.807 434.385 334.786C434.363 334.765 434.337 334.748 434.309 334.738C434.28 334.727 434.25 334.722 434.219 334.723H161.816C161.786 334.722 161.755 334.727 161.727 334.738C161.698 334.748 161.672 334.765 161.65 334.786C161.629 334.807 161.611 334.833 161.599 334.861C161.587 334.889 161.581 334.919 161.581 334.949C161.581 334.98 161.587 335.01 161.599 335.038C161.611 335.066 161.629 335.092 161.65 335.113C161.672 335.134 161.698 335.15 161.727 335.161C161.755 335.172 161.786 335.177 161.816 335.176Z" fill="#292A2E"/>
<path d="M365.472 211.395C365.472 211.395 364.77 224.69 364.641 227.812C364.34 235.03 364.236 242.504 364.236 250.978L361.566 228.763C361.566 228.763 363.519 221.802 365.472 211.395Z" fill="#0A0A0A"/>
<path d="M180.747 287.194V43.3415H368.613V287.194H180.747Z" fill="white" stroke="black" stroke-width="0.481347"/>
<path d="M351.632 125.342H197.728V162.704H351.632V125.342Z" fill="#E7EAF4"/>
<path d="M351.632 175.783H197.728V183.056H351.632V175.783Z" fill="#E7EAF4"/>
<path d="M351.632 193.721H197.728V200.994H351.632V193.721Z" fill="#E7EAF4"/>
<path d="M351.632 211.659H197.728V218.932H351.632V211.659Z" fill="#E7EAF4"/>
<path d="M351.632 227.739H197.728V235.012H351.632V227.739Z" fill="#E7EAF4"/>
<path d="M250.049 86.9101C250.049 92.0843 248.515 97.1423 245.641 101.444C242.766 105.747 238.68 109.1 233.9 111.08C229.12 113.06 223.86 113.578 218.785 112.569C213.71 111.559 209.049 109.068 205.39 105.409C201.731 101.751 199.24 97.0892 198.23 92.0144C197.221 86.9397 197.739 81.6796 199.719 76.8993C201.699 72.119 205.052 68.0332 209.354 65.1586C213.656 62.2839 218.714 60.7496 223.888 60.7496C227.327 60.7394 230.733 61.409 233.912 62.7201C237.09 64.0311 239.978 65.9577 242.41 68.389C244.841 70.8203 246.768 73.7082 248.079 76.8868C249.39 80.0654 250.06 83.4718 250.049 86.9101Z" fill="#F7F7F9"/>
<path d="M223.888 89.6064C229.608 89.6064 234.245 84.9695 234.245 79.2496C234.245 73.5297 229.608 68.8928 223.888 68.8928C218.168 68.8928 213.531 73.5297 213.531 79.2496C213.531 84.9695 218.168 89.6064 223.888 89.6064Z" fill="#FDDB8C"/>
<path d="M242.741 105.05C240.299 107.586 237.372 109.604 234.132 110.982C230.893 112.36 227.409 113.071 223.889 113.071C220.369 113.071 216.885 112.36 213.645 110.982C210.406 109.604 207.478 107.586 205.037 105.05C208.564 97.167 215.685 91.7791 223.888 91.7791C232.092 91.7791 239.213 97.167 242.741 105.05Z" fill="#FDDB8C"/>
<path d="M313.525 60.9121H260.709V76.8731H313.525V60.9121Z" fill="#E7EAF4"/>
<path d="M351.632 86.7451H260.709V92.5522H351.632V86.7451Z" fill="#E7EAF4"/>
<path d="M351.632 102.425H260.709V108.232H351.632V102.425Z" fill="#E7EAF4"/>
<path d="M254.606 249.098H197.728V270.269H254.606V249.098Z" fill="#E7EAF4"/>
<path d="M291.194 93.4651L296.168 99.3391L295.86 98.3305C295.767 98.003 295.802 97.6524 295.958 97.3496C296.113 97.0468 296.378 96.8144 296.698 96.6994C296.866 96.6458 297.042 96.6269 297.217 96.6437C297.392 96.6606 297.562 96.713 297.716 96.7976C297.87 96.8823 298.006 96.9974 298.114 97.136C298.222 97.2746 298.301 97.4338 298.345 97.6039L300.619 106.165C300.906 107.246 300.759 108.396 300.21 109.371C299.661 110.345 298.753 111.066 297.68 111.38C296.434 111.745 295.108 111.729 293.871 111.335C292.634 110.941 291.543 110.186 290.737 109.168L287.097 104.548C286.903 104.312 286.797 104.016 286.796 103.71C286.795 103.405 286.9 103.108 287.093 102.871C287.272 102.66 287.513 102.512 287.782 102.449C288.051 102.385 288.333 102.409 288.587 102.517C288.593 102.497 288.603 102.478 288.618 102.463C288.633 102.45 288.651 102.441 288.67 102.437C288.69 102.433 288.71 102.433 288.729 102.438L288.054 101.586C287.848 101.336 287.738 101.02 287.747 100.696C287.755 100.371 287.88 100.061 288.1 99.8222C288.324 99.5929 288.626 99.4552 288.946 99.4357C289.266 99.4163 289.583 99.5165 289.833 99.717C289.835 99.7034 289.839 99.6903 289.846 99.6782L289.569 99.3286C289.388 99.0891 289.289 98.7978 289.287 98.4978C289.284 98.1978 289.378 97.905 289.555 97.6627C289.772 97.4019 290.081 97.2362 290.418 97.201C290.755 97.1659 291.093 97.2641 291.358 97.4746L291.376 97.4571L289.286 94.9892C289.179 94.8626 289.099 94.7155 289.05 94.5569C289.002 94.3983 288.986 94.2315 289.004 94.0667C289.022 93.9018 289.074 93.7424 289.156 93.5981C289.237 93.4539 289.348 93.3278 289.48 93.2276C289.743 93.0424 290.066 92.964 290.384 93.0081C290.702 93.0522 290.992 93.2156 291.194 93.4651Z" fill="#F7BE8F"/>
<path opacity="0.2" d="M291.307 97.6133C291.312 97.6265 291.319 97.6388 291.329 97.6496L293.388 100.024C293.398 100.036 293.411 100.046 293.425 100.054C293.44 100.061 293.455 100.065 293.471 100.066C293.487 100.067 293.503 100.065 293.518 100.06C293.533 100.055 293.548 100.047 293.56 100.037C293.572 100.027 293.582 100.014 293.589 99.9996C293.596 99.9853 293.6 99.9697 293.602 99.9537C293.603 99.9378 293.601 99.9217 293.596 99.9065C293.591 99.8913 293.583 99.8773 293.572 99.8651L291.515 97.4914C291.496 97.4715 291.47 97.4587 291.443 97.4551C291.415 97.4515 291.387 97.4573 291.364 97.4716C291.34 97.4858 291.321 97.5077 291.312 97.5336C291.302 97.5596 291.301 97.5881 291.309 97.6145L291.307 97.6133Z" fill="#0C0C0C"/>
<path opacity="0.2" d="M289.837 99.7739C289.842 99.7867 289.849 99.7987 289.858 99.8092L291.461 101.687C291.482 101.709 291.511 101.722 291.542 101.724C291.573 101.726 291.604 101.715 291.627 101.695C291.651 101.675 291.666 101.646 291.669 101.616C291.673 101.585 291.664 101.554 291.645 101.529L290.042 99.6517C290.024 99.6297 289.998 99.615 289.97 99.6103C289.941 99.6056 289.912 99.6111 289.887 99.6259C289.863 99.6407 289.844 99.6637 289.835 99.691C289.825 99.7183 289.826 99.748 289.837 99.7748L289.837 99.7739Z" fill="#0C0C0C"/>
<path opacity="0.2" d="M288.586 102.599C288.591 102.613 288.599 102.626 288.609 102.637L289.388 103.506C289.399 103.518 289.411 103.527 289.426 103.534C289.44 103.541 289.456 103.545 289.472 103.546C289.488 103.547 289.504 103.545 289.519 103.539C289.534 103.534 289.548 103.526 289.559 103.515C289.571 103.505 289.581 103.492 289.588 103.477C289.595 103.463 289.599 103.447 289.6 103.432C289.601 103.416 289.598 103.4 289.593 103.385C289.588 103.37 289.58 103.356 289.569 103.344L288.791 102.474C288.772 102.454 288.747 102.44 288.719 102.436C288.691 102.432 288.663 102.438 288.639 102.453C288.615 102.467 288.597 102.489 288.587 102.516C288.578 102.542 288.578 102.571 288.587 102.598L288.586 102.599Z" fill="#0C0C0C"/>
<path d="M351.437 152.38L308.016 149.341C306.449 149.231 304.946 148.68 303.68 147.751C302.414 146.822 301.437 145.553 300.862 144.092L287.134 109.168L302.6 103.088L314.409 133.129L352.596 135.801L351.437 152.38Z" fill="#A99BFF"/>
<path d="M376.647 321.183C376.647 321.183 375.258 328.384 368.514 328.787C361.77 329.19 363.232 334.561 363.232 334.561H389.004V321.685L376.647 321.183Z" fill="#A99BFF"/>
<path d="M384.596 189.792C384.596 189.792 384.515 187.626 384.532 192.538C384.596 210.859 384.914 231.785 385.69 244.031C386.939 263.716 390.141 325.781 390.141 325.781L373.206 325.639L356.792 189.047L384.596 189.792Z" fill="#262626"/>
<path d="M346.499 321.183C346.499 321.183 345.109 328.384 338.366 328.787C331.622 329.19 333.084 334.561 333.084 334.561H358.856V321.685L346.499 321.183Z" fill="#A99BFF"/>
<path d="M338.298 191.214C338.298 191.214 336.798 253.83 337.018 256.89L343.316 325.305L359.971 325.613L358.348 254.414C358.348 254.414 359.493 234.774 364.238 216.537C366.666 207.177 368.127 197.593 368.599 187.935L338.298 191.214Z" fill="#262626"/>
<path d="M384.781 189.789L384.837 189.792C384.837 189.792 384.797 188.725 384.781 189.789Z" fill="#333333"/>
<path d="M335.915 156.458C336.264 160.561 337.963 186.16 338.299 191.213H384.577C384.838 186.655 386.012 166.723 387.003 157.81C387.95 149.304 389.806 145.045 388.446 142.531C386.222 138.421 380.145 136.046 376.001 135.485C373.471 135.142 369.665 134.897 369.665 134.897C369.665 134.897 369.343 141.415 361.659 141.778C351.2 142.271 351.898 134.897 351.847 134.897C350.152 134.897 340.285 135.694 338.104 137.373C334.289 140.31 335.173 147.763 335.915 156.458Z" fill="#A99BFF"/>
<path d="M335.277 151.316C335.238 151.316 335.2 151.301 335.171 151.274C335.143 151.248 335.125 151.211 335.123 151.171L334.751 144.656C334.749 144.615 334.763 144.575 334.79 144.545C334.817 144.514 334.855 144.496 334.896 144.493C334.937 144.491 334.976 144.506 335.007 144.533C335.037 144.56 335.056 144.598 335.058 144.638L335.432 151.154C335.434 151.194 335.42 151.234 335.393 151.265C335.366 151.295 335.328 151.314 335.287 151.316L335.277 151.316Z" fill="#0C0C0C"/>
<path d="M394.584 190.946C395.945 190.945 397.286 190.616 398.493 189.986C399.699 189.356 400.736 188.444 401.514 187.328C402.293 186.211 402.79 184.923 402.963 183.573C403.137 182.223 402.981 180.851 402.51 179.573C402.032 178.277 390.824 148.596 388.69 143.096L372.89 149.498C374.09 152.59 378.436 164.311 381.929 173.753L376.127 173.122L374.301 189.921L393.67 190.896C393.973 190.929 394.279 190.945 394.584 190.946Z" fill="#A99BFF"/>
<path d="M346.335 134.335C346.387 134.328 347.806 139.67 358.885 138.839C366.554 138.264 368.425 133.044 368.6 133.044C367.773 132.868 366.43 132.686 366.063 132.49C364.855 131.841 363.976 131.051 363.533 129.356C363.187 128.03 363.01 122.927 363.01 120.366L351.208 123.018C351.372 125.907 352.524 132.603 348.488 133.788C347.817 133.983 347.094 134.164 346.335 134.335Z" fill="#F7BE8F"/>
<path d="M351.617 128.696C356.269 129.063 362.246 127.098 363.381 120.891L364.405 115.29C365.541 109.083 363.201 103.455 357.358 102.386C351.513 101.317 346.224 105.55 345.089 111.757L344.636 114.237C344.2 116.619 343.316 128.041 351.617 128.696Z" fill="#F7BE8F"/>
<path d="M347.303 122.997C348.138 118.801 348.521 116.001 348.477 113.048C347.3 110.986 347.61 108.616 347.877 107.593C347.067 108.108 346.115 108.352 345.157 108.291C345.157 108.291 347.102 100.483 353.713 98.3827C354.928 97.9094 358.033 97.3117 362.155 97.877C365.661 98.3578 374.302 100.979 375.537 110.708V110.714C375.578 111.037 376.408 120.001 378.061 124.302C380.284 130.084 383.406 131.88 383.327 138.551C383.225 147.132 367.451 148.274 357.937 147.632C348.424 146.99 343.111 143.861 343.041 137.678C342.969 130.749 345.632 131.392 347.303 122.997Z" fill="#0A0A0A"/>
<path d="M385.568 157.982L384.431 191.209L384.738 191.22L385.875 157.992L385.568 157.982Z" fill="#0C0C0C"/>
<path d="M177.516 294.816C177.475 294.816 177.435 294.808 177.398 294.793C177.361 294.777 177.327 294.755 177.298 294.726C176.865 294.293 176.158 286.337 174.254 262.65C173.475 252.958 172.739 243.804 172.202 238.24C172.164 237.843 172.01 237.797 171.959 237.781C171.224 237.56 168.989 239.322 167.741 240.866C167.689 240.93 167.615 240.97 167.534 240.979C167.452 240.987 167.371 240.963 167.308 240.912C167.244 240.861 167.204 240.786 167.195 240.705C167.186 240.624 167.21 240.542 167.262 240.479C168.087 239.458 170.777 236.783 172.136 237.192C172.41 237.274 172.752 237.513 172.813 238.181C173.351 243.75 174.087 252.906 174.866 262.601C176.023 276.995 177.333 293.302 177.764 294.329C177.797 294.375 177.817 294.429 177.821 294.486C177.825 294.542 177.814 294.599 177.788 294.649C177.762 294.699 177.723 294.742 177.675 294.771C177.626 294.801 177.571 294.816 177.514 294.816H177.516Z" fill="#494949"/>
<path d="M171.412 248.45C176.519 244.356 178.211 237.984 175.192 234.218C172.174 230.452 165.586 230.717 160.479 234.811C155.372 238.905 153.68 245.276 156.699 249.043C159.718 252.809 166.305 252.543 171.412 248.45Z" fill="#0CBC8B"/>
<path opacity="0.2" d="M171.412 248.45C176.519 244.356 178.211 237.984 175.192 234.218C172.174 230.452 165.586 230.717 160.479 234.811C155.372 238.905 153.68 245.276 156.699 249.043C159.718 252.809 166.305 252.543 171.412 248.45Z" fill="white"/>
<path d="M158.129 250C158.1 250 158.072 249.992 158.047 249.976C158.022 249.961 158.003 249.938 157.99 249.912C157.978 249.885 157.973 249.856 157.977 249.827C157.98 249.798 157.992 249.771 158.011 249.748L172.565 232.197C172.578 232.181 172.594 232.169 172.612 232.159C172.63 232.15 172.649 232.144 172.669 232.142C172.69 232.14 172.71 232.142 172.729 232.148C172.749 232.154 172.767 232.164 172.782 232.177C172.798 232.19 172.811 232.206 172.82 232.224C172.829 232.241 172.835 232.261 172.837 232.281C172.839 232.301 172.837 232.322 172.831 232.341C172.825 232.36 172.815 232.378 172.802 232.394L158.248 249.945C158.234 249.962 158.215 249.976 158.195 249.986C158.174 249.995 158.152 250 158.129 250Z" fill="white"/>
<path d="M180.69 291.054C180.656 291.054 180.622 291.048 180.589 291.036C180.512 291.01 180.449 290.953 180.414 290.88C180.378 290.806 180.373 290.722 180.4 290.645L185.867 274.922C186.028 274.46 186.302 274.046 186.665 273.718C187.027 273.389 187.466 273.157 187.942 273.042C188.417 272.928 188.914 272.934 189.386 273.061C189.859 273.188 190.292 273.431 190.646 273.769L193.536 276.53C193.595 276.586 193.63 276.664 193.631 276.745C193.633 276.827 193.603 276.906 193.546 276.965C193.49 277.024 193.412 277.058 193.331 277.06C193.249 277.062 193.17 277.031 193.111 276.975L190.221 274.214C189.941 273.947 189.6 273.755 189.227 273.655C188.854 273.555 188.461 273.55 188.086 273.64C187.711 273.731 187.364 273.914 187.078 274.174C186.792 274.433 186.575 274.76 186.448 275.125L180.981 290.847C180.96 290.907 180.921 290.96 180.869 290.997C180.817 291.034 180.754 291.054 180.69 291.054Z" fill="#494949"/>
<path d="M201.609 285.234C205.394 282.239 205.169 275.65 201.107 270.518C197.045 265.386 190.683 263.654 186.899 266.65C183.114 269.646 183.339 276.235 187.401 281.366C191.463 286.498 197.824 288.23 201.609 285.234Z" fill="#0CBC8B"/>
<path d="M175.033 293.814C174.963 293.814 174.896 293.791 174.842 293.748C174.788 293.705 174.75 293.645 174.733 293.578L165.559 255.217C165.496 254.956 165.362 254.717 165.173 254.526C164.983 254.336 164.744 254.202 164.483 254.138C164.222 254.074 163.948 254.084 163.692 254.166C163.436 254.248 163.207 254.398 163.031 254.602L160.203 257.87C160.177 257.902 160.145 257.928 160.109 257.947C160.072 257.966 160.032 257.978 159.991 257.982C159.95 257.985 159.909 257.98 159.87 257.968C159.831 257.955 159.795 257.935 159.764 257.908C159.733 257.881 159.707 257.848 159.689 257.811C159.671 257.774 159.66 257.734 159.658 257.693C159.655 257.652 159.661 257.611 159.675 257.572C159.689 257.533 159.71 257.498 159.738 257.467L162.566 254.199C162.816 253.91 163.141 253.696 163.505 253.579C163.869 253.463 164.258 253.449 164.629 253.54C165 253.63 165.339 253.821 165.609 254.092C165.879 254.363 166.069 254.703 166.158 255.074L175.332 293.435C175.351 293.514 175.337 293.598 175.295 293.668C175.252 293.737 175.183 293.787 175.104 293.806C175.081 293.811 175.057 293.814 175.033 293.814Z" fill="#494949"/>
<path d="M171.648 266.392C172.763 259.943 169.811 254.048 165.055 253.225C160.299 252.403 155.539 256.964 154.424 263.414C153.308 269.863 156.26 275.758 161.016 276.581C165.773 277.403 170.532 272.842 171.648 266.392Z" fill="#0CBC8B"/>
<path d="M177.516 294.817C177.504 294.817 177.491 294.816 177.478 294.815C177.438 294.81 177.399 294.797 177.364 294.777C177.329 294.757 177.298 294.73 177.273 294.699C177.248 294.667 177.23 294.63 177.219 294.591C177.208 294.552 177.205 294.512 177.21 294.471L183.069 246.905C183.133 246.386 183.345 245.898 183.68 245.497C184.015 245.097 184.458 244.802 184.957 244.647C185.456 244.493 185.988 244.486 186.491 244.627C186.994 244.768 187.445 245.051 187.791 245.442L194.487 253.026C194.514 253.057 194.534 253.092 194.547 253.13C194.56 253.168 194.566 253.209 194.563 253.249C194.561 253.29 194.55 253.329 194.532 253.365C194.515 253.402 194.49 253.434 194.46 253.461C194.429 253.488 194.394 253.508 194.356 253.521C194.318 253.534 194.277 253.54 194.237 253.537C194.196 253.535 194.157 253.524 194.121 253.507C194.084 253.489 194.052 253.464 194.025 253.434L187.329 245.85C187.062 245.547 186.713 245.328 186.325 245.219C185.936 245.11 185.524 245.116 185.139 245.235C184.753 245.355 184.411 245.583 184.152 245.892C183.893 246.202 183.729 246.58 183.68 246.98L177.821 294.547C177.812 294.621 177.776 294.69 177.72 294.739C177.664 294.789 177.591 294.817 177.516 294.817Z" fill="#494949"/>
<path d="M201.355 257.241C203.692 253.017 200.943 247.025 195.216 243.857C189.488 240.689 182.951 241.545 180.615 245.768C178.279 249.992 181.028 255.984 186.755 259.152C192.482 262.32 199.019 261.464 201.355 257.241Z" fill="#0CBC8B"/>
<path opacity="0.2" d="M201.609 285.234C205.394 282.239 205.169 275.65 201.107 270.518C197.045 265.386 190.683 263.654 186.899 266.65C183.114 269.646 183.339 276.235 187.401 281.366C191.463 286.498 197.824 288.23 201.609 285.234Z" fill="white"/>
<path opacity="0.5" d="M171.648 266.392C172.763 259.943 169.811 254.048 165.055 253.225C160.299 252.403 155.539 256.964 154.424 263.414C153.308 269.863 156.26 275.758 161.016 276.581C165.773 277.403 170.532 272.842 171.648 266.392Z" fill="white"/>
<path opacity="0.5" d="M201.355 257.241C203.692 253.017 200.943 247.025 195.216 243.857C189.488 240.689 182.951 241.545 180.615 245.768C178.279 249.992 181.028 255.984 186.755 259.152C192.482 262.32 199.019 261.464 201.355 257.241Z" fill="white"/>
<path d="M185.009 335.176H170.023L167.539 287.226H187.493L185.009 335.176Z" fill="#292A2E"/>
<path opacity="0.3" d="M185.009 335.176H170.023L167.539 287.226H187.493L185.009 335.176Z" fill="white"/>
<path d="M201.611 285.388C201.588 285.388 201.565 285.383 201.544 285.373C201.523 285.363 201.505 285.348 201.49 285.33L186.779 266.746C186.767 266.73 186.757 266.712 186.752 266.692C186.746 266.673 186.745 266.652 186.747 266.632C186.749 266.612 186.756 266.593 186.766 266.575C186.775 266.557 186.789 266.542 186.804 266.529C186.82 266.517 186.838 266.507 186.858 266.502C186.877 266.496 186.898 266.495 186.918 266.497C186.938 266.499 186.957 266.506 186.975 266.516C186.993 266.525 187.008 266.539 187.021 266.554L201.732 285.139C201.75 285.162 201.761 285.189 201.764 285.218C201.767 285.246 201.762 285.275 201.75 285.302C201.737 285.328 201.717 285.35 201.693 285.365C201.668 285.38 201.64 285.388 201.611 285.388Z" fill="white"/>
<path d="M200.376 258.73C200.343 258.73 200.311 258.719 200.285 258.699L181.461 244.954C181.428 244.93 181.406 244.894 181.399 244.853C181.393 244.813 181.403 244.772 181.427 244.739C181.451 244.706 181.487 244.684 181.528 244.678C181.568 244.671 181.609 244.681 181.642 244.705L200.467 258.451C200.493 258.47 200.512 258.497 200.521 258.528C200.531 258.559 200.531 258.592 200.52 258.623C200.51 258.653 200.491 258.68 200.464 258.699C200.438 258.718 200.407 258.728 200.374 258.728L200.376 258.73Z" fill="white"/>
<path d="M160.25 276.38C160.237 276.38 160.224 276.378 160.211 276.374C160.172 276.364 160.138 276.338 160.118 276.303C160.098 276.268 160.092 276.226 160.103 276.187L166.095 253.734C166.1 253.715 166.109 253.696 166.121 253.68C166.133 253.663 166.149 253.649 166.166 253.639C166.184 253.629 166.203 253.622 166.224 253.619C166.244 253.616 166.264 253.618 166.284 253.623C166.304 253.628 166.322 253.637 166.339 253.65C166.355 253.662 166.368 253.678 166.378 253.696C166.388 253.713 166.395 253.733 166.397 253.753C166.4 253.774 166.398 253.794 166.392 253.814L160.4 276.265C160.391 276.298 160.372 276.327 160.345 276.348C160.318 276.369 160.285 276.38 160.25 276.38Z" fill="white"/>
</g>
<defs>
<clipPath id="clip0_844_723">
<rect width="308.062" height="296.889" fill="white" transform="translate(143.201 38.2876)"/>
</clipPath>
</defs>
</svg>
